<?xml version="1.0" encoding="utf-8"?>
<!-- Generator: Adobe Illustrator 16.0.4, SVG Export Plug-In . SVG Version: 6.00 Build 0)  -->
<!DOCTYPE svg PUBLIC "-//W3C//DTD SVG 1.1//EN" "http://www.w3.org/Graphics/SVG/1.1/DTD/svg11.dtd">
<svg version="1.1" id="Layer_1" xmlns="http://www.w3.org/2000/svg" xmlns:xlink="http://www.w3.org/1999/xlink" x="0px" y="0px"
	 width="75.989px" height="80.596px" viewBox="0 0 75.989 80.596" enable-background="new 0 0 75.989 80.596" xml:space="preserve">
<g>
	<path fill="#EAD69A" d="M51.85,38.675l0.039,0.006c-0.001,0.253-0.03,0.755-0.088,1.505c0,0.132,0.062,0.408,0.19,0.829
		c-0.029,0.694-0.046,1.078-0.047,1.15c0.075,0.64,0.116,2.384,0.125,5.232c-0.156,0.987-0.463,2.31-0.923,3.967
		c-0.054,0.197-0.111,1.128-0.174,2.793c-0.288,0.324-0.434,0.733-0.438,1.228c0.023,0.427,0.035,0.67,0.034,0.73
		c-0.162,0.925-0.26,1.897-0.292,2.917c-0.375,1.696-0.563,2.822-0.567,3.376c-0.135,0.798-0.203,1.245-0.203,1.341l-0.003,0.435
		c-0.165,0.357-0.271,0.652-0.318,0.886c0.076,0.254,0.114,0.454,0.113,0.598c-0.228,2.085-0.429,3.111-0.605,3.081
		c-0.367,0.479-0.554,1.123-0.559,1.931c-0.073,0.313-0.166,0.514-0.277,0.604c-0.052-0.009-0.09-0.257-0.112-0.743
		c-0.026-0.005-0.064-0.035-0.117-0.093c-0.002,0.313-0.295,1.493-0.881,3.54c-0.003,0.398-0.083,0.698-0.24,0.899l-0.078-0.014
		v-0.071c0.004-0.614,0.195-1.86,0.571-3.738l0.001-0.289c0-0.108-0.012-0.207-0.037-0.297c0.136-0.772,0.203-1.267,0.205-1.484
		c-0.081-0.593-0.132-0.891-0.15-0.894c0.162-1.083,0.245-1.912,0.249-2.49l-0.078,0.058l-0.156-0.026l0.002-0.289
		c0.108-0.741,0.233-1.95,0.374-3.627c0.189-1.149,0.285-2.002,0.288-2.556c-0.039-0.007-0.09-0.112-0.154-0.316l0.001-0.072
		c0.002-0.301,0.099-1.153,0.289-2.556c-0.104-0.019-0.155-0.147-0.153-0.389l0.001-0.145c0.137-0.966,0.207-1.773,0.21-2.425
		l0.004-0.434c0.002-0.482-0.021-0.969-0.07-1.46c0.089-0.6,0.289-1.409,0.602-2.43c0.053-0.135,0.107-0.464,0.163-0.984
		c-0.051-0.299-0.089-0.45-0.115-0.454c0.027-0.044,0.054-0.353,0.085-0.927l-0.114-0.526c0-0.205,0.083-0.794,0.244-1.768
		c0.004-0.409-0.021-0.8-0.07-1.17c0.002-0.29,0.199-0.666,0.593-1.128c0.008-0.156,0.324-0.729,0.948-1.719l0.353,0.06l0.272,0.12
		c0.074-0.422,0.18-0.621,0.315-0.597c0.077,0.254,0.115,0.43,0.115,0.526l0.039,0.007c0.077-0.951,0.185-1.416,0.32-1.393
		c0.059,0.01,0.098-0.08,0.119-0.269C51.739,38.68,51.791,38.665,51.85,38.675z"/>
</g>
<g>
	<path fill="#EAD69A" d="M23.548,14.365l0.04,0.004c0.025,0.161,0.049,0.479,0.072,0.957c0.014,0.084,0.105,0.259,0.277,0.525
		c0.043,0.441,0.068,0.685,0.076,0.731c0.142,0.406,0.367,1.514,0.677,3.322c-0.05,0.628-0.215,1.47-0.495,2.525
		c-0.032,0.125,0.009,0.717,0.124,1.775c-0.252,0.208-0.353,0.468-0.304,0.783c0.068,0.27,0.105,0.424,0.111,0.463
		c-0.063,0.588-0.056,1.206,0.02,1.854c-0.192,1.08-0.261,1.796-0.206,2.148c-0.05,0.507-0.069,0.791-0.06,0.852l0.043,0.276
		c-0.126,0.228-0.2,0.417-0.222,0.565c0.103,0.161,0.162,0.287,0.176,0.379c-0.005,1.325-0.096,1.978-0.273,1.96
		c-0.314,0.307-0.43,0.717-0.35,1.23c-0.04,0.199-0.11,0.327-0.21,0.385c-0.053-0.005-0.116-0.162-0.19-0.471
		c-0.026-0.002-0.068-0.022-0.126-0.059c0.032,0.199-0.134,0.951-0.499,2.254c0.04,0.252-0.008,0.444-0.143,0.573l-0.079-0.008
		L22,37.344c-0.061-0.391-0.004-1.183,0.169-2.377l-0.029-0.184c-0.01-0.068-0.033-0.131-0.068-0.188
		c0.052-0.491,0.067-0.806,0.045-0.944c-0.143-0.377-0.224-0.565-0.244-0.567c0.047-0.688,0.042-1.215-0.016-1.583l-0.072,0.038
		l-0.157-0.016L21.6,31.338c0.029-0.472,0.025-1.24-0.013-2.306c0.066-0.731,0.071-1.273,0.016-1.625
		c-0.04-0.004-0.102-0.071-0.187-0.2l-0.007-0.046c-0.03-0.191-0.024-0.733,0.016-1.625c-0.105-0.01-0.169-0.092-0.193-0.246
		l-0.015-0.091c0.033-0.614,0.017-1.128-0.048-1.542l-0.043-0.275c-0.048-0.307-0.123-0.615-0.223-0.927
		c0.023-0.382,0.137-0.897,0.338-1.547c0.038-0.087,0.057-0.296,0.057-0.628c-0.082-0.188-0.135-0.284-0.161-0.287
		c0.021-0.028,0.016-0.224-0.016-0.588l-0.168-0.334c-0.021-0.13-0.001-0.505,0.056-1.124c-0.041-0.26-0.105-0.508-0.194-0.743
		c-0.029-0.184,0.127-0.424,0.469-0.721c-0.009-0.099,0.243-0.464,0.758-1.097l0.355,0.036l0.283,0.074
		c0.029-0.268,0.112-0.395,0.25-0.381c0.103,0.161,0.159,0.272,0.168,0.333l0.04,0.004c-0.024-0.605,0.033-0.9,0.171-0.887
		c0.059,0.006,0.089-0.051,0.089-0.171C23.439,14.369,23.489,14.359,23.548,14.365z"/>
</g>
<g>
	<path fill="#EAD69A" d="M30.068,35.17l-0.038,0.012c-0.087-0.137-0.235-0.421-0.443-0.85c-0.045-0.072-0.199-0.197-0.461-0.374
		c-0.214-0.389-0.333-0.603-0.358-0.642c-0.29-0.318-0.933-1.247-1.93-2.788c-0.201-0.596-0.381-1.436-0.54-2.517
		c-0.02-0.127-0.291-0.655-0.812-1.582c0.149-0.291,0.14-0.57-0.029-0.839c-0.169-0.222-0.264-0.35-0.285-0.382
		c-0.174-0.566-0.423-1.132-0.749-1.698c-0.249-1.068-0.467-1.753-0.657-2.055c-0.154-0.486-0.247-0.755-0.28-0.808l-0.148-0.236
		c0.026-0.259,0.02-0.461-0.019-0.606c-0.158-0.107-0.261-0.201-0.311-0.279c-0.517-1.22-0.69-1.857-0.521-1.91
		c0.167-0.406,0.113-0.828-0.163-1.268c-0.042-0.199-0.028-0.345,0.042-0.438c0.051-0.016,0.17,0.104,0.36,0.358
		c0.025-0.007,0.071-0.006,0.138,0.004c-0.107-0.17-0.25-0.927-0.429-2.269c-0.136-0.216-0.167-0.411-0.094-0.583l0.075-0.024
		l0.025,0.04c0.21,0.335,0.47,1.085,0.781,2.252l0.099,0.157c0.037,0.06,0.083,0.108,0.137,0.146
		c0.146,0.473,0.256,0.768,0.33,0.886c0.28,0.29,0.429,0.431,0.448,0.425c0.228,0.651,0.44,1.134,0.638,1.449l0.051-0.063
		l0.151-0.047l0.099,0.158c0.159,0.444,0.465,1.149,0.92,2.114c0.228,0.698,0.436,1.198,0.625,1.5
		c0.038-0.012,0.121,0.025,0.25,0.11l0.024,0.04c0.103,0.164,0.312,0.664,0.625,1.5c0.101-0.032,0.192,0.019,0.274,0.149
		l0.049,0.079c0.212,0.578,0.429,1.043,0.651,1.398l0.148,0.236c0.165,0.263,0.355,0.517,0.57,0.763
		c0.128,0.361,0.228,0.879,0.298,1.556c-0.001,0.094,0.064,0.294,0.195,0.598c0.149,0.142,0.236,0.208,0.262,0.201
		c-0.009,0.034,0.073,0.213,0.246,0.535l0.287,0.241c0.07,0.112,0.2,0.463,0.391,1.056c0.14,0.223,0.297,0.425,0.471,0.606
		c0.099,0.158,0.05,0.439-0.146,0.846c0.047,0.087-0.042,0.523-0.265,1.308l-0.34,0.106l-0.289,0.043
		c0.079,0.258,0.052,0.408-0.08,0.449c-0.158-0.107-0.253-0.187-0.287-0.24l-0.038,0.012c0.26,0.546,0.324,0.84,0.192,0.881
		c-0.057,0.018-0.062,0.083-0.015,0.193C30.167,35.124,30.125,35.152,30.068,35.17z"/>
</g>
<g>
	<path fill="#EAD69A" d="M28.771,35.68l-0.039-0.006c-0.016-0.162-0.022-0.482-0.02-0.959c-0.009-0.084-0.091-0.265-0.247-0.54
		c-0.019-0.443-0.031-0.688-0.036-0.734c-0.119-0.413-0.283-1.531-0.493-3.354c0.085-0.624,0.296-1.455,0.634-2.495
		c0.039-0.123,0.03-0.715-0.026-1.779c0.263-0.194,0.378-0.449,0.347-0.765c-0.054-0.273-0.083-0.43-0.086-0.469
		c0.095-0.584,0.122-1.202,0.082-1.853c0.251-1.067,0.359-1.779,0.324-2.133c0.077-0.504,0.113-0.787,0.106-0.848l-0.028-0.278
		c0.138-0.221,0.222-0.405,0.252-0.551c-0.094-0.167-0.146-0.297-0.155-0.389c0.079-1.323,0.206-1.97,0.382-1.942
		c0.33-0.289,0.469-0.692,0.417-1.208c0.051-0.197,0.128-0.321,0.232-0.373c0.052,0.008,0.107,0.168,0.164,0.48
		c0.026,0.004,0.067,0.026,0.122,0.065c-0.02-0.2,0.188-0.941,0.623-2.223c-0.026-0.255,0.032-0.443,0.174-0.564l0.079,0.013
		l0.004,0.046c0.04,0.394-0.061,1.182-0.3,2.365l0.019,0.185c0.007,0.069,0.026,0.133,0.058,0.191
		c-0.079,0.488-0.112,0.802-0.097,0.94c0.122,0.384,0.192,0.577,0.212,0.58c-0.084,0.685-0.108,1.212-0.071,1.582l0.074-0.034
		l0.156,0.025l0.019,0.186c-0.055,0.468-0.093,1.236-0.114,2.303c-0.106,0.726-0.142,1.268-0.106,1.622
		c0.04,0.007,0.098,0.076,0.175,0.21l0.005,0.046c0.02,0.193-0.016,0.733-0.106,1.622c0.104,0.017,0.165,0.102,0.18,0.256
		l0.009,0.093c-0.066,0.61-0.079,1.125-0.037,1.541l0.028,0.278c0.031,0.309,0.088,0.621,0.172,0.938
		c-0.045,0.379-0.187,0.888-0.424,1.525c-0.042,0.084-0.073,0.292-0.091,0.624c0.071,0.193,0.119,0.292,0.146,0.295
		c-0.023,0.027-0.029,0.223-0.018,0.589l0.15,0.342c0.014,0.131-0.026,0.505-0.118,1.12c0.026,0.262,0.077,0.513,0.153,0.752
		c0.019,0.185-0.15,0.416-0.507,0.694c0.004,0.099-0.269,0.45-0.817,1.054l-0.352-0.055l-0.279-0.09
		c-0.043,0.266-0.134,0.388-0.271,0.367c-0.094-0.167-0.144-0.28-0.15-0.342l-0.04-0.007c-0.009,0.606-0.083,0.898-0.219,0.876
		c-0.059-0.009-0.092,0.047-0.099,0.167C28.88,35.683,28.83,35.689,28.771,35.68z"/>
</g>
<g>
	<path fill="#EAD69A" d="M41.218,46.183c2.019-0.146,3.15,0.048,3.39,0.586l0.069,0.153c0.011,0.026-0.001,0.045-0.038,0.056
		c0.45,0.211,0.825,0.653,1.125,1.325c-0.053,0.016-0.098,0.092-0.14,0.228l0.119,0.27c0.038,0.083-0.059,0.389-0.289,0.918
		c-0.053,0.432-0.248,0.698-0.583,0.802c-0.082,0.025-0.366,0.054-0.852,0.086c0.02,0.045,0.02,0.177-0.002,0.394l-0.101,0.031
		l-0.069-0.153l-0.041-0.206l-0.274,0.041c-0.232,0.07-0.371,0.462-0.417,1.175l-0.156,0.049l-0.035-0.077
		c0.06-0.476-0.012-0.938-0.211-1.387l-0.25-0.447c-0.318,0.105-0.706,0.737-1.163,1.896c-0.708,1.149-0.976,1.919-0.801,2.31
		c0.034,0.513-0.073,0.929-0.322,1.244c-0.114,0.545-0.207,0.867-0.28,0.97c-0.306,0.094-0.355,0.903-0.151,2.426
		c-0.229,2.224-0.207,3.641,0.064,4.248c0.003,0.371-0.008,0.694-0.037,0.972l0.13,0.179c0.012,0.025-0.021,0.127-0.094,0.302
		c0.146,0.158,0.226,0.251,0.238,0.276c-0.03,0.104-0.03,0.19,0.001,0.262l0.017,0.038c0.058,0.128,0.167,0.239,0.329,0.335
		l-0.157,0.049c0.015,0.032,0.095,0.08,0.242,0.144c0.469-0.26,0.668-0.467,0.601-0.62c0.191-0.219,0.288-0.616,0.294-1.193
		c0.446-0.616,1.146-1.066,1.163-1.349c0.259-0.406,0.49-0.641,0.691-0.703l0.017,0.038l-0.049,0.147l0.017,0.038l0.045-0.014
		c0.125-0.097,0.265-0.401,0.418-0.914c0.09-0.028,0.326-0.468,0.708-1.32c0.113-0.144,0.235-0.269,0.367-0.375l0.035,0.077
		c0.007,0.188,0.024,0.312,0.053,0.377c0.037-0.012,0.096-0.016,0.174-0.01c0.217-0.066,0.409-0.388,0.575-0.963
		c0.55-0.896,0.85-1.679,0.897-2.349c0.224-0.127,0.347-0.383,0.369-0.769l0.172-0.271l0.079,0.062l0.017,0.039
		c-0.164,0.276-0.269,0.879-0.312,1.81c-0.244,0.402-0.508,1.083-0.791,2.044c-0.187,0.057-0.296,0.297-0.327,0.722
		c-0.118,0.037-0.133,0.186-0.041,0.449c-0.217,0.576-0.282,0.963-0.193,1.161l-0.101,0.031c-0.051-0.115-0.064-0.23-0.041-0.348
		l-0.044,0.014c-0.05,0.022-0.08,0.355-0.089,0.999c-0.296,0.935-0.704,1.954-1.229,3.062c0.021,0.045,0.015,0.119-0.014,0.223
		l0.044-0.014c0.111-0.15,0.212-0.239,0.301-0.267l0.035,0.076c-0.707,1.04-1.864,1.662-2.535,1.868l-0.202,0.062
		c-1.238,0.38-2.402,0.107-3.493-0.816c-0.42-0.409-0.791-0.973-1.11-1.689l-0.844-1.891c-0.083-0.281-0.158-1.152-0.226-2.616
		c0.141-0.043,0.182-0.834,0.123-2.373c0.024-0.706,0.321-2.511,0.89-5.415c-0.08-0.179,0.019-0.489,0.296-0.931
		c-0.044-0.234,0.115-0.665,0.479-1.293c0.022-0.044,0.057-0.186,0.103-0.425l-0.191-0.029c-0.119,0.037-0.398,0.418-0.838,1.143
		c-0.194,0.059-0.421,0.347-0.683,0.863l-0.122,0.126l-0.045,0.014l-0.069-0.153c0.167-0.103,0.303-0.366,0.41-0.792
		c0.334-0.656,0.654-1.176,0.957-1.56c-0.057-0.034-0.1-0.083-0.128-0.146c0.191-0.103,0.25-0.236,0.176-0.403l0.056-0.018
		l0.19,0.029c-0.188-0.423-0.004-0.799,0.552-1.13l0.62-0.464l-0.034-0.076c-0.104,0.032-0.167,0.022-0.19-0.028
		c-0.012-0.084,0.109-0.165,0.362-0.242l1.253-0.385C40.733,46.419,41.112,46.215,41.218,46.183z M36.562,55.841
		c0.02,0.045,0.012,0.12-0.026,0.226l0.018,0.039l0.056-0.017c-0.02-0.045-0.015-0.12,0.015-0.223l-0.017-0.039L36.562,55.841z
		 M39.881,55.871c0.015,0.031,0.015,0.079,0,0.142l0.056-0.018l0.011-0.09l-0.021-0.048L39.881,55.871z M43.906,62.529l0.017,0.038
		c0.112-0.093,0.144-0.19,0.099-0.292C43.977,62.289,43.938,62.373,43.906,62.529z M42.687,50.13l0.035,0.077l0.045-0.014
		l-0.034-0.076L42.687,50.13z"/>
</g>
<g>
	<path fill="#EAD69A" d="M50.425,57.237c0.031-0.056,0.141-0.057,0.33-0.005l0.039,0.026c0.136,0.146,0.187,0.249,0.153,0.31
		l-0.037,0.066l-0.295-0.154C50.482,57.36,50.418,57.279,50.425,57.237z M49.414,56.322l0.008-0.017
		c0.363-0.062,0.571-0.143,0.626-0.239c0.052,0.037,0.191-0.113,0.415-0.448c0.187-0.331,0.323-0.862,0.409-1.597
		c0.152-0.401,0.244-0.629,0.274-0.681l0.019-0.034c0.091-0.162,0.348-0.422,0.767-0.78c-0.013-0.108-0.014-0.17-0.004-0.186
		c0.458-0.558,0.726-0.902,0.8-1.034c0.081-0.467,0.137-0.727,0.165-0.779l0.01-0.016c0.007-0.012-0.004-0.025-0.03-0.043
		c0.276-0.297,0.551-0.561,0.825-0.789c0.086-0.021,0.184-0.13,0.293-0.326c0.103-0.44,0.184-0.713,0.242-0.817l0.447-0.794
		c0.274-0.358,0.425-0.561,0.451-0.607c0.039-0.069,0.072-0.161,0.1-0.275l0.257-0.261l0.024-0.143
		c0.131-0.231,0.542-0.576,1.237-1.034c0.286-0.186,0.445-0.307,0.476-0.362c0.023-0.041,0.032-0.218,0.026-0.53
		c0.124-0.22,0.147-0.486,0.068-0.799c0.431-0.667,0.678-0.979,0.744-0.935l0.054-0.192l0.093-0.166
		c0.081-0.143,0.257-0.229,0.527-0.259l0.04,0.027L58.73,42.29l0.079,0.053c0.069-0.06,0.124-0.091,0.162-0.096
		c0.016-0.091,0.037-0.162,0.063-0.208l0.019-0.033c0.48-0.466,0.786-0.655,0.917-0.566l0.04,0.027
		c-0.031,0.055-0.042,0.139-0.033,0.252l0.079,0.054c0.023-0.042,0.091-0.033,0.205,0.024c0.102-0.053,0.159-0.09,0.172-0.112
		l0.139-0.248l1.167-1.104l0.056-0.099c0.02-0.018,0.052-0.011,0.098,0.02l0.039,0.027l-0.072,0.224l-0.13,0.232
		c-0.147,0.262-0.388,0.525-0.719,0.792l-0.187,0.33c-0.037,0.066-0.134,0.176-0.292,0.326c0.029,0.078,0.03,0.14,0.004,0.187
		l-0.195,0.347c-0.004,0.203-0.012,0.312-0.021,0.328l-0.078-0.054l0.007-0.109l0.037-0.066l-0.079-0.053l-0.056,0.099
		c0.035,0.196,0.045,0.308,0.028,0.339l-0.103,0.181c-0.095,0.491-0.28,0.982-0.557,1.473l-0.028,0.049l0.039,0.027
		c0.063-0.063,0.125-0.075,0.184-0.036l0.04,0.027c-0.119,0.211-0.212,0.408-0.277,0.588l-1.619,2.489
		c0.049,0.299-0.021,0.617-0.209,0.953l-0.047,0.082c-0.454,0.808-0.768,1.266-0.938,1.375l-0.087,0.444
		c-0.033,0.011-0.1,0.065-0.199,0.161c-0.098,0.238-0.193,0.44-0.287,0.605l-0.213,0.38c-0.319,0.823-0.465,1.311-0.441,1.461
		c-0.09,0.029-0.162,0.095-0.218,0.193c-0.039,0.198-0.081,0.337-0.126,0.418l-0.289,0.512c0.105,0.071,0.149,0.124,0.131,0.157
		l-0.02,0.033c-0.009,0.016-0.109,0.13-0.302,0.343l-0.261,0.463l-0.45,0.219c-0.021,0.037-0.061,0.14-0.119,0.309
		c-0.377,0.09-0.751,0.301-1.12,0.634c-0.181,0.109-0.334,0.188-0.46,0.235l-0.088-0.036c0.006-0.011-0.004-0.025-0.03-0.043
		l-0.192,0.052c-0.093-0.063-0.293-0.223-0.604-0.479l-0.056,0.1c-0.049,0.088-0.2,0.161-0.451,0.219l-0.088-0.036l-0.04-0.027
		l0.01-0.017c0.139-0.051,0.224-0.106,0.258-0.167l0.084-0.148l-0.079-0.054l0.047-0.083l0.007-0.109l-0.038-0.026
		c-0.103,0.179-0.329,0.26-0.684,0.245C50.082,56.441,49.8,56.424,49.414,56.322z M50.814,54.897l0.039,0.026
		c0.021-0.035,0.05-0.054,0.087-0.055c-0.016-0.038-0.017-0.068-0.002-0.094l-0.039-0.026c-0.014,0.021-0.033,0.023-0.06,0.007
		C50.842,54.816,50.833,54.865,50.814,54.897z M53.483,50.06l0.039,0.026l0.02-0.032l-0.04-0.027L53.483,50.06z M55.867,51.54
		l0.038,0.027l0.177-0.314l-0.039-0.026L55.867,51.54z M59.268,42.882l0.04,0.027l0.056-0.099l-0.088-0.037
		C59.291,42.811,59.288,42.847,59.268,42.882z"/>
</g>
<g>
	<path fill="#EAD69A" d="M47.428,50.207c0.427,0.192,0.707,0.449,0.839,0.769l0.046-0.014l-0.016-0.162l-0.061-0.148l0.092-0.029
		l-0.11-0.267c-0.044-0.108-0.15-0.241-0.322-0.399l-0.012-0.029l0.046-0.015h0.105c0.307,0.237,0.492,0.435,0.557,0.592
		l0.073,0.178c0.359-0.182,0.593-0.29,0.699-0.324l0.236,0.192c0.031-0.01,0.042-0.024,0.033-0.044h0.105
		c0.155,0.146,0.345,0.353,0.569,0.621c0.466,0.705,0.928,1.238,1.39,1.598c0.082,0.281,0.136,0.454,0.162,0.518l0.558,0.592
		l0.342,0.827c0.245,0.425,0.374,0.65,0.386,0.681l0.025,0.06c0.024,0.059-0.025,0.108-0.148,0.147l0.379,0.916
		c0.06,0.144,0.119,0.369,0.178,0.68c0.073,0.178,0.165,0.315,0.275,0.414c-0.021,0.202,0.186,0.995,0.62,2.379l0.281,0.681
		c0.121,0.296,0.249,0.646,0.382,1.05c0.126,0.199,0.209,0.318,0.251,0.354l0.131,0.694c0.213,0.261,0.617,1.114,1.215,2.558
		l0.061,0.148c0.249,0.601,0.353,1.104,0.312,1.507l2.104,4.583c0.09,0.301,0.214,0.641,0.37,1.021l-0.046,0.014
		c-0.069,0.022-0.144-0.031-0.224-0.162l-0.046,0.015l0.037,0.089c0.362,0.877,0.615,1.7,0.761,2.468l0.134,0.325
		c0.022,0.055,0.019,0.212-0.013,0.473l0.073,0.179l0.092-0.03L60.3,75.784l-0.015-0.163l0.092-0.028
		c0.013,0.029,0.027,0.191,0.045,0.487l0.257,0.62c0.035,0.084,0.037,0.172,0.006,0.267c0.2,0.315,0.325,0.531,0.373,0.65
		l0.245,0.591c0.416,0.587,0.722,1.115,0.914,1.583l0.172,0.414l0.102,0.369l-0.047,0.015c-0.054,0.017-0.093,0.008-0.116-0.03
		l-0.073-0.178l-1.475-2.307l-0.185-0.442c-0.016-0.04-0.088-0.129-0.214-0.268c-0.133,0.016-0.215-0.014-0.246-0.089l-0.091,0.03
		c-0.005,0.157,0.014,0.285,0.055,0.384l-0.047,0.015c-0.153,0.05-0.533-0.41-1.141-1.375l-0.024-0.06
		c-0.035-0.084-0.064-0.197-0.089-0.34c-0.048-0.029-0.115-0.108-0.203-0.236l-0.091,0.028l0.061,0.148l-0.046,0.015
		c-0.329-0.207-0.546-0.438-0.652-0.695l-0.122-0.296l-0.077-0.31c-0.076,0.024-0.395-0.577-0.954-1.805
		c0.076-0.403,0.032-0.802-0.13-1.196c-0.013-0.448-0.033-0.709-0.064-0.783c-0.04-0.099-0.239-0.369-0.597-0.813
		c-0.866-1.085-1.384-1.834-1.555-2.248l-0.04-0.221l-0.324-0.533c-0.04-0.182-0.086-0.335-0.137-0.458
		c-0.035-0.084-0.229-0.468-0.581-1.153l-0.588-1.419c-0.077-0.188-0.191-0.631-0.343-1.33c-0.144-0.35-0.268-0.566-0.372-0.65
		c-0.346-0.497-0.693-1.046-1.044-1.642c0.03-0.01,0.042-0.024,0.034-0.044l-0.013-0.03c-0.038-0.093-0.121-0.502-0.247-1.227
		c-0.098-0.236-0.44-0.896-1.028-1.981c-0.012-0.029-0.014-0.117-0.005-0.266c-0.528-0.773-0.854-1.306-0.974-1.597l-0.025-0.06
		c-0.038-0.093-0.161-0.478-0.371-1.152c-0.148-1.113-0.345-1.966-0.59-2.557c-0.291-0.621-0.468-0.922-0.529-0.902
		c-0.071-0.172-0.327-0.414-0.769-0.725l-0.012-0.03C46.871,49.849,47.21,49.997,47.428,50.207z M48.228,52.897
		c0.03-0.011,0.055,0.005,0.07,0.044l0.046-0.015c-0.019-0.044-0.02-0.089-0.002-0.133c-0.046-0.024-0.082-0.069-0.108-0.133
		l-0.045,0.014C48.213,52.734,48.226,52.807,48.228,52.897z M51.726,61.352l0.047-0.016l-0.025-0.059l-0.046,0.015L51.726,61.352z
		 M54.721,61.164l0.046-0.014l-0.232-0.562l-0.046,0.014L54.721,61.164z M59.132,75.353h0.104l-0.073-0.177l-0.046,0.016
		C59.144,75.255,59.148,75.309,59.132,75.353z"/>
</g>
<g>
	<path fill="#EAD69A" d="M34.97,46.259l0,0.025c-0.327,0.272-0.491,0.479-0.495,0.624c-0.071-0.014-0.131,0.239-0.178,0.757
		c-0.013,0.492,0.131,1.195,0.428,2.107c0.058,0.558,0.086,0.876,0.084,0.954l-0.001,0.05c-0.006,0.242-0.124,0.689-0.353,1.342
		c0.068,0.12,0.102,0.191,0.101,0.217c-0.164,0.908-0.249,1.461-0.253,1.657c0.164,0.595,0.245,0.931,0.243,1.009l0,0.024
		c0,0.018,0.017,0.028,0.052,0.035c-0.119,0.501-0.254,0.961-0.407,1.382c-0.073,0.072-0.113,0.255-0.12,0.546
		c0.129,0.575,0.19,0.941,0.187,1.097l-0.028,1.182c-0.084,0.573-0.128,0.895-0.13,0.964c-0.003,0.103,0.012,0.229,0.044,0.379
		l-0.118,0.447l0.049,0.183c-0.008,0.344-0.237,0.977-0.686,1.897c-0.187,0.377-0.282,0.606-0.284,0.688
		c-0.001,0.062,0.082,0.275,0.251,0.641c-0.007,0.327,0.108,0.654,0.35,0.979c-0.079,1.023-0.162,1.527-0.25,1.511l0.046,0.257
		l-0.006,0.245c-0.005,0.213-0.134,0.411-0.387,0.595l-0.054-0.01l0.003-0.123l-0.106-0.021c-0.038,0.108-0.076,0.176-0.112,0.202
		c0.033,0.116,0.048,0.211,0.046,0.28l-0.001,0.049c-0.233,0.813-0.438,1.203-0.614,1.17l-0.054-0.01
		c0.002-0.082-0.031-0.188-0.099-0.315l-0.106-0.02c-0.002,0.061-0.074,0.089-0.216,0.083c-0.074,0.118-0.111,0.193-0.112,0.227
		l-0.009,0.368l-0.581,1.942l-0.003,0.147c-0.01,0.031-0.045,0.041-0.107,0.029l-0.054-0.01l-0.045-0.305l0.008-0.346
		c0.009-0.389,0.109-0.831,0.299-1.327l0.012-0.492c0.002-0.098,0.042-0.279,0.119-0.545c-0.069-0.076-0.103-0.147-0.101-0.217
		l0.013-0.517c-0.102-0.242-0.151-0.374-0.151-0.399l0.106,0.021l0.05,0.133l-0.002,0.099l0.106,0.02l0.003-0.147
		c-0.137-0.211-0.206-0.339-0.205-0.384l0.007-0.271c-0.163-0.632-0.235-1.312-0.218-2.041l0.002-0.075l-0.052-0.009
		c-0.03,0.109-0.084,0.156-0.164,0.143l-0.053-0.011c0.007-0.315-0.003-0.598-0.033-0.846l0.306-3.823
		c-0.205-0.326-0.302-0.739-0.29-1.24l0.003-0.123c0.029-1.201,0.1-1.912,0.212-2.134l-0.147-0.572
		c0.029-0.031,0.066-0.131,0.115-0.299c-0.028-0.335-0.039-0.625-0.033-0.872l0.014-0.564c-0.114-1.146-0.223-1.8-0.326-1.965
		c0.073-0.084,0.111-0.2,0.115-0.349c-0.065-0.255-0.096-0.442-0.093-0.561l0.019-0.763c-0.142-0.026-0.212-0.064-0.211-0.113
		l0.001-0.05c0-0.024,0.042-0.215,0.121-0.57l0.017-0.688l0.332-0.506c0.001-0.054-0.013-0.196-0.042-0.429
		c0.327-0.312,0.587-0.767,0.78-1.361c0.122-0.228,0.232-0.405,0.333-0.53l0.107-0.005c0,0.017,0.017,0.028,0.053,0.035l0.164-0.167
		c0.125,0.023,0.407,0.101,0.848,0.233l0.003-0.147c0.003-0.131,0.114-0.3,0.333-0.506l0.107-0.005l0.053,0.01l0,0.024
		c-0.111,0.136-0.167,0.249-0.168,0.339l-0.005,0.222l0.106,0.02l-0.003,0.123l0.051,0.133l0.052,0.01
		c0.006-0.267,0.19-0.487,0.55-0.663C34.244,46.486,34.532,46.351,34.97,46.259z M34.323,48.708l-0.053-0.01
		c-0.001,0.053-0.02,0.092-0.057,0.113c0.035,0.035,0.052,0.071,0.051,0.108l0.053,0.01c0-0.032,0.02-0.046,0.055-0.039
		C34.339,48.818,34.322,48.757,34.323,48.708z M34.203,55.875l-0.054-0.01l-0.001,0.049l0.053,0.01L34.203,55.875z M31.065,55.436
		l-0.052-0.01l-0.011,0.467l0.053,0.011L31.065,55.436z M32.213,67.512l-0.053-0.01l-0.003,0.147l0.107-0.005
		C32.229,67.609,32.212,67.565,32.213,67.512z"/>
</g>
<g>
	<path fill="#EAD69A" d="M35.899,35.456l0.022,0.001c0.009,0.077,0.012,0.232,0.01,0.463c0.004,0.041,0.051,0.125,0.138,0.25
		c0.01,0.214,0.016,0.332,0.019,0.354c0.067,0.195,0.157,0.729,0.272,1.604c-0.048,0.308-0.169,0.721-0.361,1.241
		c-0.022,0.062-0.019,0.349,0.012,0.862c-0.149,0.107-0.214,0.236-0.197,0.387c0.029,0.13,0.045,0.205,0.048,0.224
		c-0.055,0.288-0.071,0.589-0.05,0.903c-0.144,0.53-0.206,0.88-0.186,1.051c-0.044,0.248-0.064,0.387-0.061,0.417l0.015,0.133
		c-0.079,0.113-0.126,0.208-0.144,0.28c0.053,0.076,0.082,0.136,0.087,0.18c-0.046,0.646-0.119,0.966-0.218,0.961
		c-0.187,0.156-0.266,0.358-0.237,0.606c-0.029,0.098-0.073,0.162-0.132,0.192c-0.029-0.001-0.06-0.077-0.091-0.225
		c-0.015-0.001-0.038-0.009-0.069-0.025c0.011,0.096-0.107,0.465-0.355,1.109c0.014,0.122-0.019,0.216-0.099,0.282l-0.044-0.002
		l-0.002-0.022c-0.021-0.189,0.037-0.576,0.174-1.162l-0.01-0.089c-0.004-0.033-0.015-0.063-0.032-0.09
		c0.045-0.241,0.064-0.394,0.056-0.461c-0.068-0.18-0.107-0.27-0.118-0.271c0.048-0.335,0.063-0.593,0.042-0.771l-0.042,0.021
		l-0.088-0.004l-0.01-0.089c0.032-0.23,0.055-0.605,0.068-1.123c0.061-0.357,0.082-0.621,0.062-0.792
		c-0.022-0.001-0.055-0.032-0.098-0.093l-0.002-0.022c-0.011-0.093,0.01-0.356,0.062-0.792c-0.059-0.003-0.092-0.042-0.101-0.115
		l-0.005-0.045c0.039-0.3,0.046-0.549,0.023-0.75l-0.015-0.133c-0.017-0.148-0.049-0.297-0.095-0.446
		c0.026-0.187,0.106-0.44,0.241-0.762c0.024-0.042,0.042-0.145,0.053-0.306c-0.04-0.091-0.067-0.137-0.082-0.137
		c0.013-0.014,0.017-0.109,0.011-0.287l-0.084-0.158c-0.007-0.062,0.016-0.246,0.069-0.549c-0.015-0.125-0.043-0.245-0.085-0.357
		c-0.01-0.089,0.085-0.209,0.287-0.361c-0.001-0.048,0.153-0.232,0.463-0.552l0.198,0.009l0.157,0.03
		c0.025-0.131,0.076-0.195,0.153-0.19c0.053,0.076,0.081,0.128,0.084,0.158l0.022,0.001c0.006-0.294,0.048-0.439,0.125-0.436
		c0.033,0.002,0.051-0.026,0.056-0.085C35.838,35.459,35.867,35.454,35.899,35.456z"/>
</g>
<g>
	<path fill="#EAD69A" d="M39.505,35.455l0.022,0.001c0.009,0.078,0.012,0.232,0.009,0.464c0.005,0.041,0.051,0.124,0.139,0.25
		c0.009,0.213,0.015,0.331,0.019,0.354c0.066,0.195,0.156,0.729,0.271,1.604c-0.048,0.307-0.169,0.72-0.361,1.24
		c-0.022,0.062-0.019,0.349,0.011,0.862c-0.148,0.107-0.214,0.236-0.196,0.388c0.029,0.13,0.045,0.205,0.047,0.223
		c-0.055,0.288-0.071,0.588-0.051,0.903c-0.143,0.53-0.205,0.88-0.186,1.05c-0.045,0.248-0.065,0.387-0.062,0.417l0.015,0.133
		c-0.078,0.114-0.125,0.208-0.143,0.28c0.053,0.076,0.082,0.137,0.087,0.182c-0.047,0.645-0.121,0.965-0.219,0.96
		c-0.187,0.157-0.266,0.358-0.237,0.606c-0.029,0.098-0.073,0.163-0.131,0.192c-0.029-0.001-0.06-0.076-0.091-0.226
		c-0.015,0-0.038-0.009-0.069-0.025c0.011,0.097-0.107,0.466-0.354,1.109c0.014,0.122-0.02,0.216-0.1,0.282l-0.044-0.002
		L37.88,46.68c-0.021-0.188,0.037-0.576,0.174-1.161l-0.01-0.089c-0.004-0.033-0.015-0.063-0.032-0.09
		c0.045-0.241,0.064-0.395,0.057-0.461c-0.068-0.18-0.108-0.271-0.119-0.271c0.049-0.336,0.063-0.594,0.043-0.771l-0.042,0.021
		l-0.088-0.004l-0.01-0.09c0.032-0.229,0.055-0.604,0.068-1.122c0.061-0.357,0.082-0.622,0.062-0.792
		c-0.022-0.001-0.055-0.032-0.098-0.093l-0.002-0.022c-0.011-0.092,0.01-0.356,0.062-0.792c-0.059-0.002-0.092-0.042-0.101-0.115
		l-0.005-0.045c0.039-0.299,0.046-0.55,0.023-0.75l-0.015-0.133c-0.017-0.148-0.049-0.296-0.095-0.446
		c0.026-0.187,0.106-0.439,0.241-0.761c0.024-0.043,0.042-0.145,0.053-0.307c-0.04-0.09-0.067-0.135-0.082-0.136
		c0.013-0.015,0.017-0.11,0.011-0.286l-0.084-0.16c-0.007-0.062,0.015-0.246,0.069-0.549c-0.015-0.125-0.043-0.245-0.085-0.356
		c-0.01-0.09,0.085-0.209,0.287-0.362c-0.001-0.048,0.153-0.232,0.463-0.551l0.198,0.01l0.157,0.029
		c0.025-0.131,0.076-0.195,0.152-0.191c0.053,0.076,0.082,0.13,0.085,0.159l0.022,0.001c0.007-0.294,0.047-0.439,0.125-0.435
		c0.033,0.001,0.051-0.027,0.056-0.086C39.444,35.459,39.473,35.453,39.505,35.455z"/>
</g>
<g>
	<path fill="#EAD69A" d="M25.316,39.85h0.02c0.276,0.098,0.471,0.146,0.583,0.146c0.003,0.022,0.212,0.038,0.625,0.048
		c0.386,0,0.905-0.049,1.558-0.146c0.424-0.022,0.667-0.034,0.728-0.034h0.039c0.189,0,0.562,0.033,1.116,0.098
		c0.08-0.022,0.129-0.033,0.149-0.033c0.74,0.043,1.188,0.065,1.342,0.064c0.432-0.054,0.678-0.082,0.739-0.082h0.019
		c0.013,0,0.019-0.006,0.017-0.016c0.414,0.032,0.799,0.07,1.157,0.114c0.071,0.022,0.221,0.032,0.449,0.032
		c0.423-0.043,0.696-0.065,0.818-0.065H35.6c0.463,0.021,0.722,0.032,0.777,0.032c0.08,0,0.176-0.006,0.286-0.017l0.373,0.033
		l0.132-0.017c0.271,0,0.808,0.065,1.614,0.196c0.33,0.054,0.528,0.081,0.592,0.081c0.047,0,0.198-0.027,0.449-0.082
		c0.257,0,0.49-0.038,0.695-0.114c0.812,0.016,1.223,0.037,1.226,0.064l0.191-0.016h0.191c0.167,0,0.347,0.038,0.54,0.114
		l0.003,0.016h-0.096l0.005,0.033c0.091,0.01,0.151,0.021,0.179,0.032c0.085-0.011,0.155-0.016,0.209-0.016h0.039
		c0.68,0.064,1.023,0.125,1.032,0.179l0.003,0.016c-0.064,0-0.141,0.011-0.227,0.033l0.006,0.032c0.048,0,0.083,0.022,0.107,0.066
		c0.106,0.021,0.172,0.032,0.198,0.032h0.289l1.628,0.163h0.116c0.025,0.003,0.041,0.014,0.043,0.032l0.003,0.017l-0.229,0.016
		h-0.27c-0.306,0-0.671-0.027-1.094-0.081h-0.386c-0.077,0-0.227-0.01-0.449-0.032c-0.045,0.022-0.094,0.033-0.15,0.033h-0.405
		c-0.168,0.033-0.261,0.049-0.281,0.049l-0.005-0.033l0.093-0.016h0.078l-0.005-0.033h-0.116c-0.138,0.044-0.225,0.066-0.26,0.066
		h-0.212c-0.461,0.054-0.977,0.082-1.548,0.082h-0.059l0.003,0.016c0.091,0.009,0.139,0.024,0.143,0.049l0.002,0.016
		c-0.248,0-0.465,0.006-0.653,0.016l-3.04-0.063c-0.214,0.065-0.518,0.098-0.91,0.098h-0.097c-0.942,0-1.511-0.016-1.706-0.048
		l-0.417,0.049c-0.03-0.009-0.115-0.02-0.256-0.033c-0.255,0.011-0.479,0.017-0.673,0.017h-0.443
		c-0.871,0.044-1.359,0.082-1.467,0.115c-0.08-0.022-0.179-0.033-0.294-0.033c-0.187,0.022-0.326,0.033-0.419,0.033h-0.598
		c0.007,0.044-0.008,0.065-0.047,0.065h-0.039c-0.019,0-0.175-0.011-0.468-0.032h-0.54l-0.46-0.097c-0.042,0-0.15,0.005-0.326,0.016
		c-0.308-0.098-0.713-0.174-1.214-0.228c-0.202-0.036-0.361-0.068-0.479-0.097l-0.025-0.033c0.013,0,0.019-0.005,0.017-0.016
		l-0.162-0.049c-0.006-0.038-0.001-0.125,0.016-0.261h-0.116c-0.103,0-0.256-0.032-0.46-0.098l-0.024-0.033l-0.002-0.016h0.019
		c0.128,0.032,0.227,0.048,0.298,0.048h0.173l-0.005-0.032h0.097l0.093-0.016l-0.002-0.017c-0.208,0-0.417-0.054-0.625-0.163
		C25.635,40.07,25.473,39.983,25.316,39.85z M27.352,40.029l0.002,0.016c0.042,0,0.075,0.005,0.099,0.017
		c0.021-0.012,0.046-0.017,0.075-0.017l-0.003-0.016c-0.026,0-0.039-0.006-0.042-0.016C27.434,40.023,27.39,40.029,27.352,40.029z
		 M32.962,40.01l0.002,0.017h0.039l-0.003-0.017H32.962z M33.235,40.973l0.003,0.016h0.366l-0.003-0.016H33.235z M42.424,40.528
		l0.002,0.017h0.116l-0.025-0.033C42.497,40.523,42.465,40.528,42.424,40.528z"/>
</g>
<g>
	<path fill="#EAD69A" d="M42.261,35.763c0.113,0,0.283,0.06,0.511,0.178c0.185,0.014,0.295,0.022,0.332,0.022l0.511-0.089h0.065
		c0.011,0.066,0.063,0.118,0.157,0.155c0.138-0.074,0.408-0.111,0.813-0.111h0.11c0.219-0.001,0.383,0.066,0.492,0.2
		c0.063,0.03,0.117,0.044,0.16,0.044c0.26,0,0.424-0.067,0.493-0.2c0.028,0,0.043-0.008,0.041-0.023c0.411,0,0.694,0.082,0.85,0.245
		c0.004,0.026,0.184,0.055,0.539,0.088l0.029,0.045l0.004,0.022c0.006,0.037-0.047,0.075-0.157,0.111l0.004,0.023
		c0.005,0.033,0.249,0.092,0.729,0.177c0.133,0.056,0.343,0.093,0.631,0.111l0.055,0.067c-0.099,0.045-0.219,0.067-0.361,0.067
		l-0.732-0.066c-0.328,0-0.515,0.066-0.559,0.2c0.002,0.015-0.003,0.022-0.019,0.022h-0.307c-0.18,0.06-0.277,0.089-0.291,0.089
		l0.04,0.112l0.004,0.022c-0.012,0-0.069,0.008-0.173,0.022c-0.63-0.015-1.018-0.021-1.163-0.021
		c-0.098,0.026-0.142,0.07-0.132,0.133h-0.066c-0.124,0-0.322-0.007-0.594-0.022l0.003,0.156c0.061,0.104,0.093,0.164,0.095,0.178
		c-0.002,0.608-0.061,0.964-0.175,1.067c-0.123,0.229-0.162,0.482-0.117,0.756l0.025,0.423c0.166,0.163,0.383,0.244,0.654,0.244
		c0.134,0,0.233-0.059,0.298-0.178h0.066c0.092,0,0.212,0.022,0.36,0.066l0.128-0.022h0.065c0.15,0.178,0.383,0.267,0.701,0.267
		l0.029,0.044l0.01,0.067c-0.062,0-0.099,0.037-0.112,0.111c0.43,0.104,0.872,0.178,1.327,0.222l0.03,0.045
		c0.006,0.041-0.062,0.07-0.205,0.089c-0.132,0-0.42-0.022-0.864-0.067c-0.048,0-0.103,0.023-0.164,0.067h-0.198
		c-0.061,0-0.126,0.052-0.192,0.156h-0.219c-0.069,0-0.189,0.023-0.361,0.067l0.004,0.022l0.054,0.067l0.004,0.023
		c0.005,0.029-0.007,0.044-0.036,0.044c-0.55-0.014-0.887-0.022-1.011-0.022c-0.009,0.104-0.109,0.156-0.303,0.156
		c0.002,0.019-0.131,0.093-0.401,0.223L43.615,42.3c-0.064,0.1-0.153,0.181-0.268,0.245c-0.049,0.229-0.065,0.4-0.047,0.512
		l0.011,0.066l0.114,0.023h0.109c0.168-0.134,0.391-0.201,0.667-0.201c0.131,0.085,0.198,0.137,0.201,0.155
		c0.704-0.178,1.091-0.267,1.16-0.267h0.044c0.157,0,0.283,0.008,0.376,0.022c0.104-0.014,0.233-0.022,0.391-0.022h0.109
		c0.069,0,0.233,0.066,0.493,0.2h0.064c0.351,0,0.6-0.082,0.748-0.245h0.044c0.609-0.001,0.963,0.066,1.061,0.199
		c0.011,0.059,0.251,0.104,0.724,0.134l0.029,0.044l0.003,0.022l-0.156,0.111l-0.015,0.045l0.047,0.022
		c0.183,0,0.579,0.06,1.189,0.178c0.204,0,0.311,0.022,0.317,0.066l0.003,0.023c0.008,0.044-0.083,0.066-0.273,0.066l-0.591,0.001
		c-0.116,0-0.271-0.008-0.464-0.022c-0.042,0.03-0.083,0.044-0.124,0.044h-0.196c-0.12,0-0.206,0.053-0.259,0.156
		c-0.043,0.03-0.085,0.045-0.124,0.045c-0.186-0.015-0.281-0.022-0.289-0.022c-0.204,0.044-0.336,0.082-0.396,0.111
		c0.036,0.048,0.058,0.092,0.064,0.134l-0.189,0.044c-0.095,0-0.22-0.008-0.376-0.022c-0.926,0.052-1.385,0.096-1.378,0.134
		c0.009,0.059-0.001,0.089-0.03,0.089L44.915,44.5c-0.399,0.056-0.594,0.115-0.583,0.178c-0.022,0.023-0.165,0.045-0.427,0.067
		c-0.025,0.045-0.073,0.067-0.142,0.067H43.74c-0.051,0-0.118-0.007-0.2-0.022c-0.28,0.163-0.559,0.245-0.836,0.245
		c-0.014-0.089-0.073-0.133-0.175-0.133c0.017,0.1-0.1,0.411-0.351,0.934c-0.04,0.223-0.081,0.333-0.121,0.333h-0.044l-0.003-0.022
		c-0.032-0.196,0.028-0.544,0.18-1.045c0.012-0.192,0.014-0.318,0.003-0.377c-0.549-0.141-0.832-0.267-0.85-0.378l-0.03-0.178
		l0.005-0.111c-0.259-0.059-0.393-0.118-0.402-0.178c0.118-0.081,0.175-0.134,0.172-0.156l-0.003-0.022
		c-0.127-0.041-0.346-0.085-0.657-0.133l-0.054-0.067l-0.008-0.045c0.126-0.029,0.248-0.051,0.362-0.066
		c0.079,0.015,0.124,0.022,0.135,0.022c0.307,0,0.699-0.104,1.175-0.312c-0.007-0.045,0.036-0.274,0.128-0.689
		c0.006-0.164,0.055-0.445,0.146-0.846l-0.003-0.022c-0.004-0.026-0.037-0.092-0.098-0.2c-0.005-0.03,0.005-0.104,0.029-0.223
		c-0.062,0-0.166-0.148-0.313-0.445h-0.108c-0.023,0-0.047-0.022-0.077-0.066l-0.011-0.067c0.058,0,0.081-0.045,0.066-0.133
		c-0.162-0.03-0.332-0.045-0.512-0.045H41.24c-0.029,0-0.045-0.014-0.051-0.044l-0.003-0.023c-0.009-0.052,0.138-0.088,0.441-0.111
		c0.292-0.092,0.435-0.152,0.43-0.178c-0.061-0.015-0.096-0.06-0.109-0.134l0.15-0.022c0.135,0.03,0.233,0.045,0.291,0.045
		c0.117,0,0.125-0.304,0.026-0.912c0.079-0.323,0.107-0.552,0.084-0.689l-0.051-0.311c-0.019-0.119,0.033-0.245,0.158-0.378
		c-0.276-0.152-0.465-0.278-0.566-0.377c-0.007-0.023-0.159-0.104-0.456-0.245c-0.052-0.056-0.083-0.107-0.09-0.156l-0.018-0.111
		l-0.004-0.156c-0.087,0-0.176-0.052-0.266-0.155l-0.008-0.045c0.113-0.025,0.166-0.055,0.161-0.089
		c-0.075-0.059-0.282-0.119-0.62-0.177l-0.037-0.09c0.051-0.029,0.106-0.044,0.168-0.044h0.634
		C41.955,35.83,42.207,35.763,42.261,35.763z M40.879,40.433c0.062,0.022,0.094,0.044,0.098,0.067l0.019,0.111
		c-0.048,0.015-0.076,0.022-0.083,0.022c-0.062-0.022-0.096-0.044-0.099-0.066L40.802,40.5
		C40.796,40.462,40.823,40.44,40.879,40.433z M41.565,40.877c0.102,0,0.161,0.044,0.174,0.133l0.008,0.045
		c-0.021,0.089-0.073,0.133-0.153,0.133h-0.087c-0.025,0-0.062-0.044-0.109-0.133C41.403,40.937,41.459,40.877,41.565,40.877z
		 M44.233,38.452l0.007,0.045c0.03,0,0.042-0.015,0.038-0.045H44.233z"/>
</g>
<g>
	<path fill="#EAD69A" d="M17.126,6.732h0.055c0.117,0,0.303,0.691,0.557,2.074c0.181,0,0.288,0.099,0.32,0.296l0.009,0.059
		C18.082,9.25,18,9.309,17.824,9.339l0.029,0.178c0.062,0.376,0.194,0.632,0.398,0.771l0.01,0.059
		c-0.019,0.553-0.025,0.85-0.019,0.889c0.371,1.155,0.62,2.124,0.747,2.904l0.029,0.177c0.128,0.781,0.085,1.629-0.127,2.548
		c0.006,0.484,0.066,1.293,0.179,2.43c0.323,0.869,0.504,1.422,0.543,1.658l0.02,0.119c0.048,0.296-0.083,0.711-0.395,1.245
		l0.004,0.355l0.479,1.6l0.165,1.007c0.031,0.188,0.044,0.385,0.042,0.592l0.264,0.948c-0.055,0.554-0.007,1.621,0.142,3.2
		c0.774,0.295,1.192,0.632,1.253,1.006l0.068,0.415c0.435,0,0.675,0.138,0.721,0.414l0.01,0.06c-0.142,0.02-0.205,0.08-0.188,0.178
		c0.019,0.119,0.265,0.178,0.736,0.178l0.49,0l0.282,0.06l0.039,0.236c-0.549,0.08-1.046,0.257-1.491,0.534
		c-1.284,0.247-1.965,0.405-2.045,0.475c-0.063,0-0.083,0.098-0.06,0.296l0.126,0.77c0.27,0.543,0.425,0.938,0.466,1.185
		c0.027,0.167,0.03,1.293,0.008,3.377c-0.41,0.602-0.541,1.354-0.394,2.252c0.021,0.632-0.054,0.948-0.226,0.948
		c-0.108,0-0.205-0.257-0.289-0.77h-0.109c-0.14,0.256-0.183,0.987-0.131,2.192c-0.238,0.988-0.368,1.857-0.39,2.607h-0.163
		l-0.019-0.119c-0.125-0.761-0.137-1.945-0.038-3.555c-0.111-0.237-0.206-0.592-0.283-1.066c-0.018-0.553-0.043-0.928-0.076-1.125
		c-0.021-0.128-0.206-0.484-0.555-1.066c0.019-0.77-0.002-1.344-0.063-1.718c-0.068-0.415-0.175-0.85-0.322-1.303l-0.233,0.237
		h-0.054l-0.103-0.296c-0.055-0.335-0.142-1.422-0.26-3.259c-0.207-0.04-0.354-0.059-0.445-0.059
		c-0.954,0.158-1.503,0.238-1.648,0.238l-0.009-0.059c-0.166-0.237-0.403-0.356-0.711-0.356H14.17
		c-0.7,0.159-1.03,0.356-0.991,0.593c-0.203,0.424-0.318,0.938-0.347,1.541c-0.671,0.553-1.013,1.127-1.025,1.719
		c0.054,0.326-0.077,0.642-0.389,0.948c-0.073,0-0.115-0.039-0.128-0.118l-0.059-0.355l0.007-0.297h-0.218
		c-0.265,1.097-0.685,2.084-1.257,2.963c-0.145,0.553-0.278,0.85-0.398,0.889H9.31L9.207,40.51c0.08-0.178,0.188-0.632,0.322-1.363
		c0.486-0.8,0.659-1.63,0.518-2.489c0.169-0.513,0.239-0.869,0.207-1.066c-0.198-0.435-0.306-0.651-0.324-0.651
		c0.176-0.919,0.249-1.472,0.219-1.66c-0.118,0-0.54-0.139-1.265-0.414H8.829c-0.947,0.197-1.398,0.435-1.353,0.711l-0.643,0.06
		H5.744c-0.063,0-0.379-0.158-0.948-0.474l-1.36,0.001l-0.103-0.296c0.172,0,0.28-0.119,0.323-0.356l-0.499-0.06
		c-0.045,0-0.223,0.021-0.535,0.061c-0.027,0-0.175-0.021-0.445-0.06C1.8,32.533,1.39,32.573,0.945,32.573l-0.925,0.001l-0.02-0.119
		c-0.037-0.228,0.907-0.445,2.832-0.653c0.953-0.326,1.437-0.583,1.452-0.771c-0.021-0.128,0.503-0.247,1.574-0.356l0.134-0.178
		L5.855,30.32l-0.029-0.178c2.081-0.198,3.506-0.356,4.275-0.475c0.253-0.168,0.42-0.701,0.5-1.6
		c0.263-0.83,0.382-1.324,0.356-1.481c-0.026-0.159-0.104-0.415-0.234-0.771c0.207-1.116,0.643-2.894,1.304-5.333
		c0.096-0.247,0.131-0.918,0.106-2.015c0.183-0.157,0.289-0.612,0.321-1.363c0.248-0.316,0.372-1.105,0.374-2.37
		c0.157-0.316,0.48-0.671,0.968-1.067c-0.017-0.217,0.183-0.435,0.601-0.652c-0.068-0.415,0.092-0.987,0.481-1.719
		c0.142-1.461,0.367-2.192,0.675-2.192c0.285,0.079,0.455,0.118,0.509,0.118c0.237-0.099,0.297-0.513,0.177-1.244l0.208-0.06
		c0.136,0.168,0.278,0.484,0.427,0.948c0.145,0,0.181-0.671,0.106-2.015L17.126,6.732z M3.561,32.928l0.019,0.119h0.055l-0.02-0.119
		H3.561z M6.073,30.32l0.01,0.059h0.109l-0.01-0.059H6.073z M11.405,37.31l0.019,0.119h0.055l-0.02-0.119H11.405z M15.493,22.376
		c-0.187,1.965-0.328,3.209-0.423,3.733c-0.212,0.257-0.446,1.048-0.701,2.371c-0.144,0.286-0.247,0.543-0.309,0.77h0.217
		c0.29-0.167,0.979-0.286,2.064-0.355l-0.103-0.296l-0.155-0.948c-0.123-0.75-0.195-1.856-0.216-3.319l-0.3-1.836l0.035-0.118
		H15.493z M17.423,36.181l0.01,0.06h0.109l-0.01-0.06H17.423z M18.812,15.383l0.039,0.237h0.055
		c0.014-0.138,0.019-0.217,0.016-0.237H18.812z M22.465,30.077h0.49c0.114,0.256,0.18,0.435,0.196,0.533l0.029,0.178
		c-0.223,0.08-0.38,0.119-0.47,0.119h-0.272l-0.122-0.414l-0.01-0.06C22.425,30.274,22.478,30.155,22.465,30.077z M24.231,31.557
		h0.326l0.103,0.296l0.029,0.178h-0.327c-0.072,0-0.118-0.059-0.137-0.178L24.231,31.557z"/>
</g>
<g>
	<path fill="#EAD69A" d="M56.653,32.795h-0.08c-0.053,0-0.083-0.03-0.093-0.09l-0.015-0.09c0.174-0.382,0.25-0.637,0.229-0.764
		c-0.248-0.435-0.713-1.033-1.396-1.797c-0.169-0.277-0.444-0.831-0.822-1.662c-0.366-0.472-0.581-0.906-0.646-1.303
		c-0.434-0.764-0.712-1.184-0.836-1.258c-0.028,0.943-0.178,1.558-0.446,1.842c-0.209,0.164-0.259,0.584-0.148,1.258
		c0.011,0.068,0.105,0.247,0.285,0.54c-0.099,1.168-0.265,1.752-0.501,1.752c-0.111,0-0.197,0.359-0.257,1.079l-0.168,0.179h-0.077
		l-0.076-0.224l-0.03-0.18h-0.157c-0.325,1.7-0.471,2.658-0.435,2.876h-0.08c-0.052,0-0.083-0.031-0.093-0.09l-0.015-0.09
		c0.023-0.502,0.005-1.655-0.054-3.46l-0.277-0.494c0.034-0.435,0.031-0.929-0.007-1.483H50.42c-0.076,0.06-0.148,0.09-0.222,0.09
		l-0.007-0.045c-0.048-0.284-0.021-0.763,0.08-1.438c-0.028-0.172,0.011-0.816,0.116-1.932c-0.012-0.075-0.091-0.24-0.238-0.494
		l0.34-3.46c-0.059-0.203-0.099-0.367-0.12-0.494l-0.021-0.136c-0.013-0.075,0.045-0.523,0.173-1.348
		c-0.122-0.749-0.092-1.123,0.092-1.123l1.089-1.528l-0.091-0.314l-0.036-0.225l0.188-0.045c0.029,0.18,0.151,0.285,0.367,0.315
		l0.337-0.584l0.028,0.18l0.114,0.449h0.077c-0.006-0.12,0.024-0.18,0.09-0.18h0.118c0.089,0.225,0.137,0.359,0.145,0.404
		c0.238-0.188,0.402-0.547,0.492-1.079h0.119l0.075,0.225l0.008,0.045c-0.178,1.003-0.224,1.768-0.138,2.291
		c-0.026,0-0.036,0.015-0.031,0.046c0.053,0.164,0.088,0.299,0.105,0.404l0.007,0.045l-0.039,0.719
		c0.014,0.09,0.259,0.464,0.734,1.124c1.016,1.878,1.616,3.392,1.804,4.537c0.356,0.741,0.679,1.505,0.965,2.292h0.039
		c0.033-2.044,0.137-3.183,0.309-3.415c0.246-0.375,0.346-1.454,0.297-3.236l-0.044-0.27l-0.219-0.854
		c0.113-1.722,0.155-2.666,0.128-2.831c-0.059-0.359,0.043-0.943,0.305-1.752c0.031-0.412,0.026-1.236-0.011-2.471
		c0.043-0.18,0.08-0.27,0.113-0.27h0.039c0.084,0.195,0.133,0.33,0.146,0.404l0.065,0.404c0.111,0,0.134-0.509,0.065-1.527
		c0.117-1.693,0.162-2.622,0.135-2.786c0.026-0.24,0.073-0.36,0.138-0.36l0.138,0.36c0.046,1.4,0.065,2.403,0.06,3.01
		c0.095,0.42,0.167,0.779,0.215,1.079c-0.013,0.562,0.004,0.981,0.049,1.258L59.136,15l0.352,0.943
		c0.097,1.88,0.181,3.033,0.251,3.459l0.007,0.045h0.038c0.054-0.157,0.078-0.247,0.075-0.27h0.04
		c0.053,0.008,0.083,0.038,0.093,0.09c0.048,1.542,0.015,2.861-0.102,3.954c-0.117,2.494-0.162,3.827-0.134,3.999
		c0.017,0.105,0.096,0.345,0.235,0.719c-0.053,1.28-0.066,1.999-0.041,2.157l0.11,0.674c0.024,0.149-0.051,0.329-0.227,0.539
		l0.117,0.719c-0.173,0.225-0.35,0.509-0.529,0.854c-0.157,0-0.253,0.135-0.288,0.405c-0.026,0-0.186,0.149-0.478,0.449h-0.079
		l-0.415-0.134c-0.371,0.06-0.562,0.09-0.576,0.09l-0.036-0.225c-0.008-0.045-0.054-0.09-0.141-0.135
		c-0.157,0,0.041-0.514-0.01-0.185c-0.081,0.269-0.217,0.404-0.406,0.405l-0.054-0.09l0.026-0.315
		c-0.112-0.045-0.172-0.09-0.179-0.135l-0.029-0.18c-0.003-0.06,0.119-0.309,0.165-0.309 M56.923,32.525 M50.272,29.157l0.015,0.09
		h0.04l-0.016-0.09H50.272z M55.673,24.393l0.015,0.09c0.035,0.06,0.057,0.105,0.062,0.135h0.039l-0.015-0.09
		c-0.036-0.059-0.057-0.104-0.061-0.135H55.673z M58.062,13.249l0.029,0.18h0.039l-0.029-0.18H58.062z M59.854,19.628
		c0.011,0.068,0.007,0.128-0.011,0.18h0.079l-0.03-0.18H59.854z"/>
</g>
<g>
	<path fill="#EAD69A" d="M37.536,12.181h0.174c0.27,0.274,0.495,0.412,0.677,0.412l0.435,0c0.225,0,0.689,0.353,1.393,1.058h0.042
		c0.176-0.079,0.301-0.118,0.373-0.118c0.152,0,0.284,0.098,0.396,0.293c0.015,0.088-0.03,0.343-0.135,0.765
		c0.534,0.784,0.83,1.353,0.888,1.705l0.019,0.117l-0.208,0.06h-0.087c-0.124,0-0.246-0.039-0.367-0.118
		c-0.136,0.059-0.188,0.176-0.16,0.353c0.383,0.392,0.662,0.588,0.835,0.588c-0.01-0.157,0.021-0.235,0.093-0.235h0.261
		c0.271,0.059,0.427,0.215,0.468,0.47c0.011,0.068-0.046,0.246-0.174,0.529c0.708,0.598,1.214,1.833,1.519,3.704
		c0.266,0.382,0.416,0.676,0.449,0.882c-0.019,0.951,0.017,1.873,0.104,2.764c-0.067,0.304-0.07,0.814-0.011,1.529l0.212-0.294
		h0.043l0.01,0.059c0.166,1.02-0.203,2.667-1.108,4.94c-0.831,1.53-1.537,2.451-2.116,2.765c-0.972,0.804-1.565,1.255-1.781,1.354
		c-0.24,0-0.367,0.02-0.382,0.059c-0.726,0-1.664-0.411-2.814-1.233c-1.668-1.51-2.742-3.724-3.219-6.645l-0.048-0.294
		c-0.035-0.215-0.066-0.49-0.091-0.823l-0.01-0.059h-0.043c-0.04,0.823-0.088,1.235-0.146,1.235l-0.116-0.176l-0.077-0.471
		l-0.046-2.411c-0.103-0.941-0.122-1.411-0.057-1.411l-0.048-0.294c-0.202-0.304-0.314-0.461-0.338-0.47
		c0.064-1.207,0.089-1.853,0.075-1.941h-0.218c-0.058,0-0.093-0.039-0.106-0.118l-0.01-0.058c0.161-1.059,0.447-2.059,0.859-3
		c0.318-0.363,0.455-0.677,0.412-0.942l-0.082-0.235c0.13-0.49,0.499-1.078,1.104-1.765c0.138-0.353,0.654-0.745,1.549-1.176
		c0.229-0.51,0.768-0.765,1.616-0.766l-0.048-0.294c-0.013-0.078,0.024-0.118,0.111-0.118l-0.01-0.059L37.536,12.181z
		 M40.679,17.296l-0.023,0.117l0.532,0.588l0.037,0.235c-0.095,0.04-0.149,0.059-0.164,0.059l0.01,0.059
		c0.143,0.167,0.233,0.362,0.27,0.588l0.048,0.294h-0.174c-0.398-0.568-0.786-1.078-1.164-1.528c-0.35,0.079-0.59,0.118-0.721,0.118
		c-0.072,0-0.313-0.137-0.72-0.411c0.039,0.284-0.207,1.088-0.738,2.411c-0.108,0.667-0.437,1.411-0.984,2.235
		c-0.414,1.197-0.539,2.293-0.375,3.293c0.206,1.529,0.215,2.294,0.026,2.294l-0.15,0.412c0.067,0.146,0.178,0.559,0.332,1.235
		c0.506,1.097,0.958,1.646,1.357,1.646c0.329,0.196,0.636,0.294,0.919,0.293c0.094,0,0.537-0.215,1.33-0.647
		c0.451,0,0.735-0.216,0.853-0.647c0.266-0.324,0.475-0.912,0.626-1.765c-0.109-1.068-0.106-1.754,0.012-2.058
		c0.263-1.235,0.344-2.156,0.245-2.764c0.021-0.273,0.136-0.548,0.344-0.823c0.063-0.323,0.064-0.676,0.001-1.058
		c-0.062-0.382-0.212-1.029-0.448-1.94c0.018-0.069,0.02-0.147,0.005-0.236h0.13c0.03,0,0.17,0.158,0.425,0.47h0.043
		c0.059,0,0.082-0.039,0.068-0.117c-0.355-0.843-0.898-1.587-1.627-2.234C40.916,17.413,40.809,17.374,40.679,17.296z
		 M37.286,20.766l0.019,0.118c0.058,0,0.081-0.039,0.068-0.118H37.286z M44.586,27.35l0.02,0.118h0.043l-0.02-0.118H44.586z"/>
</g>
<g>
	<path fill="#EAD69A" d="M47.897,13.234h0.043c0.025,0.155,0.047,0.464,0.065,0.929c0.013,0.081,0.112,0.243,0.297,0.486
		c0.04,0.428,0.064,0.663,0.071,0.708c0.15,0.383,0.382,1.444,0.695,3.183c-0.065,0.62-0.262,1.459-0.589,2.521
		c-0.038,0.125-0.002,0.7,0.106,1.724c-0.281,0.229-0.398,0.494-0.348,0.796c0.07,0.258,0.109,0.406,0.115,0.442
		c-0.079,0.582-0.082,1.187-0.008,1.812c-0.23,1.077-0.318,1.784-0.263,2.123c-0.062,0.501-0.09,0.781-0.081,0.84l0.044,0.265
		c-0.143,0.236-0.228,0.428-0.254,0.575c0.111,0.147,0.174,0.265,0.188,0.354c-0.027,1.298-0.139,1.946-0.335,1.946
		c-0.352,0.332-0.486,0.745-0.407,1.238c-0.046,0.199-0.127,0.332-0.238,0.398c-0.059,0-0.126-0.147-0.204-0.442
		c-0.028,0-0.074-0.015-0.137-0.044c0.03,0.191-0.166,0.943-0.59,2.255c0.04,0.244-0.015,0.435-0.167,0.575h-0.087l-0.007-0.044
		c-0.062-0.376,0.014-1.157,0.226-2.344l-0.029-0.177c-0.01-0.066-0.034-0.125-0.071-0.176c0.064-0.487,0.087-0.796,0.065-0.929
		c-0.152-0.354-0.239-0.53-0.261-0.53c0.063-0.678,0.066-1.194,0.008-1.548l-0.08,0.044h-0.173l-0.03-0.176
		c0.041-0.465,0.049-1.217,0.023-2.256c0.085-0.722,0.101-1.253,0.045-1.592c-0.044,0-0.11-0.059-0.203-0.177L45.32,25.97
		c-0.029-0.184-0.015-0.715,0.045-1.591c-0.115,0-0.186-0.074-0.21-0.221l-0.014-0.088c0.045-0.604,0.037-1.105-0.029-1.503
		L45.07,22.3c-0.05-0.295-0.126-0.589-0.232-0.884c0.033-0.376,0.166-0.892,0.399-1.547c0.045-0.089,0.068-0.295,0.073-0.62
		c-0.086-0.177-0.145-0.265-0.174-0.265c0.024-0.029,0.022-0.221-0.008-0.575l-0.18-0.31c-0.021-0.125,0.006-0.494,0.08-1.105
		c-0.041-0.25-0.108-0.486-0.203-0.708c-0.029-0.177,0.148-0.427,0.53-0.752c-0.009-0.096,0.277-0.479,0.857-1.15l0.391,0
		l0.312,0.045c0.037-0.266,0.131-0.398,0.283-0.398c0.111,0.147,0.171,0.25,0.181,0.309h0.044c-0.017-0.589,0.051-0.884,0.203-0.884
		c0.066,0,0.101-0.059,0.102-0.177C47.776,13.25,47.831,13.234,47.897,13.234z"/>
</g>
<g>
	<path fill="#EAD69A" d="M32.194,35.208l0.021,0.001c0.009,0.077,0.012,0.232,0.01,0.464c0.004,0.041,0.051,0.124,0.138,0.249
		c0.01,0.214,0.016,0.332,0.019,0.354c0.066,0.195,0.156,0.729,0.271,1.604c-0.048,0.308-0.169,0.721-0.361,1.241
		c-0.022,0.062-0.019,0.349,0.011,0.862c-0.148,0.106-0.214,0.235-0.196,0.387c0.029,0.13,0.045,0.205,0.048,0.224
		c-0.055,0.288-0.071,0.588-0.05,0.903c-0.144,0.53-0.205,0.88-0.186,1.05c-0.044,0.248-0.065,0.387-0.061,0.417l0.015,0.133
		c-0.079,0.114-0.126,0.208-0.144,0.28c0.053,0.076,0.082,0.136,0.087,0.181c-0.047,0.646-0.12,0.965-0.218,0.961
		c-0.187,0.156-0.266,0.358-0.238,0.606c-0.029,0.097-0.072,0.162-0.131,0.192c-0.029-0.002-0.06-0.077-0.091-0.226
		c-0.015-0.001-0.037-0.009-0.068-0.025c0.011,0.096-0.107,0.466-0.354,1.109c0.014,0.122-0.019,0.216-0.1,0.282l-0.044-0.003
		l-0.003-0.022c-0.021-0.189,0.037-0.576,0.174-1.162l-0.011-0.088c-0.003-0.034-0.014-0.063-0.032-0.09
		c0.045-0.242,0.064-0.395,0.057-0.462c-0.068-0.179-0.108-0.27-0.119-0.271c0.049-0.335,0.063-0.593,0.043-0.77l-0.042,0.02
		l-0.088-0.004l-0.011-0.089c0.032-0.23,0.055-0.604,0.069-1.122c0.061-0.358,0.082-0.622,0.062-0.792
		c-0.022-0.002-0.055-0.032-0.098-0.093l-0.002-0.022c-0.011-0.092,0.01-0.357,0.062-0.792c-0.059-0.003-0.092-0.042-0.101-0.115
		l-0.005-0.045c0.039-0.3,0.046-0.55,0.023-0.75l-0.015-0.133c-0.017-0.148-0.049-0.297-0.095-0.446
		c0.026-0.187,0.106-0.439,0.241-0.762c0.024-0.042,0.042-0.145,0.053-0.306c-0.04-0.09-0.067-0.136-0.082-0.137
		c0.013-0.014,0.017-0.109,0.011-0.286l-0.084-0.159c-0.007-0.062,0.015-0.246,0.069-0.549c-0.015-0.125-0.043-0.245-0.085-0.357
		c-0.01-0.089,0.086-0.209,0.287-0.361c-0.001-0.048,0.153-0.232,0.463-0.551l0.198,0.009l0.157,0.03
		c0.025-0.131,0.077-0.195,0.153-0.191c0.053,0.076,0.081,0.129,0.084,0.159l0.022,0c0.006-0.294,0.048-0.438,0.125-0.435
		c0.034,0.001,0.052-0.026,0.056-0.086C32.132,35.212,32.161,35.207,32.194,35.208z"/>
</g>
<path fill="#EAD69A" d="M29.839,65.852c-0.218-1.335-0.742-2.725-1.57-4.168c-0.053-0.323-1.352-1.965-3.899-4.927
	c-0.792-0.495-1.39-0.927-1.795-1.292L22.57,54.98l-0.01-0.064c-0.013-0.075-0.203-0.21-0.57-0.403
	c-0.26-0.625-0.623-1.152-1.087-1.583c-0.097-0.593-0.229-0.889-0.397-0.889c-0.026-0.162-0.035-0.485-0.025-0.971
	c-0.005-0.032-0.079-0.209-0.22-0.532l-0.011-0.064c-0.053-0.323,0.05-0.873,0.308-1.648c0.184-0.441,0.706-0.965,1.564-1.568
	c0.438-0.28,1.231-0.463,2.382-0.55c0.227,0.119,0.364,0.324,0.411,0.614c0.679,1.013,1.024,1.557,1.037,1.632
	c0.217,0,0.456,0.437,0.717,1.309l0.785,0.274h0.074c0.102,0.323,0.213,0.484,0.331,0.484h0.059
	c0.142-0.463,0.232-0.694,0.271-0.694l0.444-0.001c0.326,0,0.516-0.226,0.57-0.679l-0.069-2.052
	c-0.162-0.689-0.269-1.195-0.322-1.519c-0.065-0.398-0.28-0.807-0.645-1.228c-0.939-0.613-1.569-1.115-1.889-1.501
	c-0.6-0.227-1.051-0.453-1.354-0.679c-0.035-0.215-0.825-0.398-2.37-0.548h-0.503c-1.075,0-2.162,0.565-3.26,1.697h-0.192
	c-0.079,0-0.13-0.037-0.152-0.113c0.037-0.14,0.089-0.21,0.158-0.21l-0.037-0.226c-0.005-0.032-0.116-0.048-0.333-0.048
	c-0.666,0.452-1.049,0.679-1.147,0.679c-0.474,0-1.059,0.642-1.758,1.923l0.077,0.469c0.07,0.431,0.042,0.803-0.084,1.115
	c0.005,0.636-0.036,1.018-0.124,1.147c-0.256,0-0.32,0.91-0.19,2.73c0.053,0.323,0.228,0.852,0.525,1.583
	c0.412,0.528,0.69,0.964,0.835,1.309l0.011,0.064c0.014,0.087-0.019,0.13-0.098,0.13c0.049,0.302,0.205,0.619,0.467,0.953
	c0.345,0,0.88,0.824,1.603,2.472c0.732,0.614,1.114,1.023,1.148,1.228l-0.314,0.34c0.041,0.248,0.319,0.565,0.836,0.952
	c0.29,1.229,0.49,1.939,0.6,2.134h0.252c-0.039-0.841-0.043-1.411-0.014-1.713h0.059c0.069,0,0.196,0.14,0.379,0.42h0.06
	c0.094-0.636,0.234-0.954,0.421-0.954c0.005,0.032,0.072,0.049,0.2,0.049c1.57,1.453,2.5,2.524,2.791,3.214
	c-0.085,0.021-0.14,0.205-0.162,0.55c0.249,0.797,0.391,1.303,0.426,1.519l0.09,0.55c0.109,0.667,0,1.146-0.328,1.438
	c-0.104,0.452-0.777,0.678-2.021,0.679c-0.009-0.054-0.038-0.08-0.087-0.08l-0.105,0.08c-0.67-0.053-1.145-0.123-1.426-0.209
	c-0.108,0-0.467-0.141-1.075-0.42c-0.079,0-0.116,0.048-0.11,0.146l0.011,0.064c0.221,0.323,0.463,0.507,0.727,0.549l0.013,0.081
	h-0.06c-0.483,0-0.978-0.161-1.485-0.484l0.036-0.145l-0.056-0.34h-0.296c-0.256,0-0.499-0.183-0.726-0.549
	c-0.671-0.302-1.064-0.506-1.181-0.614c-1.133-1.562-1.758-2.697-1.875-3.408c-0.081-0.496-0.118-0.841-0.11-1.035
	c0.078-2.057,0.103-3.177,0.072-3.359l-0.131-0.082l-0.193,0.001c-0.297,2.047-0.354,3.625-0.173,4.734
	c0.043,0.27,0.246,0.996,0.607,2.182l0.014,0.08c-0.069,0-0.348-0.409-0.837-1.228h-0.119l0.09,0.549l0.13,0.34h-0.074
	c-0.32-0.689-0.504-1.034-0.554-1.034h-0.118c0.007,0.043-0.001,0.113-0.025,0.21c0.539,1.486,0.867,2.585,0.983,3.296l-0.125,0.049
	c-0.108,0-0.182-0.086-0.22-0.259l-0.266,0.001l0.034,0.209c0.331,0.755,0.501,1.164,0.511,1.229l0.021,0.13l0.035,0.484
	c0.598,0.818,1.167,1.341,1.707,1.566c0.062-0.043,0.137-0.064,0.226-0.064h0.192c0.929,0.312,1.41,0.564,1.442,0.759
	c0.091,0.56,0.867,0.898,2.327,1.018l0.854-0.211c0.256,0,0.55,0.14,0.882,0.42h0.06l1.158-0.34h0.562
	c0.227-0.001,0.526,0.021,0.899,0.063c0.315,0,0.628-0.14,0.938-0.42c1.056,0,1.857-0.502,2.404-1.504
	c0.265-1.099,0.477-1.734,0.636-1.906C29.76,68.207,30.066,67.242,29.839,65.852z M28.62,47.678c0,0-0.744-0.541-0.648-1.046
	C27.972,46.632,28.819,46.832,28.62,47.678z M21.241,47.661H21.3l-0.087,0.194h-0.074L21.241,47.661z M18.615,57.858l-0.011-0.064
	h0.118l0.011,0.064H18.615z M14.522,64.969l-0.021-0.129h0.074l0.021,0.129H14.522z M14.656,65.793l-0.031-0.194h0.074
	c0.267,0.722,0.687,1.363,1.262,1.923l0.008,0.049C15.583,67.571,15.146,66.978,14.656,65.793z"/>
<g>
	<path fill="#EAD69A" d="M62.741,44.068v-0.041c0.274-0.583,0.41-0.994,0.41-1.231c0.062-0.008,0.106-0.447,0.137-1.319
		c-0.001-0.815-0.139-1.91-0.413-3.287c-0.062-0.896-0.093-1.407-0.093-1.535v-0.083c0-0.4,0.092-1.185,0.273-2.353
		c-0.061-0.169-0.092-0.273-0.092-0.314c0.121-1.562,0.182-2.505,0.182-2.831c-0.153-0.911-0.229-1.43-0.229-1.559v-0.042
		c0-0.027-0.016-0.038-0.045-0.035c0.091-0.873,0.196-1.687,0.317-2.44c0.062-0.15,0.092-0.465,0.092-0.947
		c-0.123-0.894-0.184-1.47-0.184-1.727l-0.001-1.954c0.061-0.978,0.091-1.524,0.091-1.639c0-0.169-0.016-0.371-0.047-0.605
		l0.092-0.784l-0.046-0.28c-0.001-0.569,0.182-1.704,0.546-3.404c0.152-0.697,0.229-1.113,0.229-1.249
		c-0.001-0.102-0.077-0.417-0.229-0.948c0-0.543-0.107-1.032-0.32-1.466c0.046-1.715,0.104-2.578,0.181-2.587l-0.045-0.401V8.602
		c0-0.353,0.105-0.732,0.319-1.138l0.045-0.006v0.204l0.092-0.011c0.029-0.193,0.062-0.319,0.091-0.378
		c-0.029-0.179-0.045-0.327-0.045-0.441V6.749c0.182-1.433,0.348-2.16,0.501-2.178l0.045-0.005c0,0.135,0.031,0.294,0.092,0.477
		l0.092-0.011c0-0.102,0.061-0.177,0.183-0.226c0.061-0.225,0.091-0.364,0.091-0.418v-0.61l0.455-3.434V0.099
		c0.007-0.056,0.037-0.086,0.091-0.093L65.643,0l0.046,0.482v0.57c0,0.644-0.075,1.414-0.227,2.307v0.813
		c0,0.163-0.03,0.479-0.091,0.947c0.061,0.095,0.091,0.199,0.091,0.315V6.29c0.093,0.355,0.139,0.553,0.139,0.593l-0.092,0.011
		l-0.046-0.198l-0.001-0.163l-0.09,0.011v0.244c0.122,0.291,0.184,0.473,0.184,0.548v0.447c0.152,0.972,0.229,2.061,0.229,3.268
		v0.122l0.046-0.005c0.022-0.192,0.068-0.293,0.137-0.301l0.046-0.006c0,0.522,0.016,0.982,0.046,1.378l-0.18,6.412
		c0.183,0.453,0.275,1.092,0.275,1.919l0.001,0.204c0.001,1.987-0.045,3.187-0.136,3.598l0.138,0.879
		c-0.023,0.063-0.054,0.244-0.092,0.541c0.031,0.539,0.047,1.011,0.047,1.419v0.936c0.122,1.836,0.23,2.867,0.321,3.094
		c-0.061,0.17-0.091,0.377-0.091,0.622c0.062,0.393,0.091,0.687,0.092,0.884v1.261c0.122-0.015,0.184,0.019,0.184,0.1v0.081
		c0,0.041-0.031,0.37-0.091,0.989v1.139l-0.273,0.969c0,0.088,0.016,0.317,0.046,0.687c-0.273,0.651-0.486,1.504-0.638,2.561
		c-0.1,0.426-0.19,0.763-0.274,1.01l-0.091,0.053c0-0.028-0.015-0.039-0.046-0.036l-0.136,0.342
		c-0.107,0.014-0.351,0.002-0.731-0.032v0.245c0,0.217-0.092,0.541-0.274,0.97l-0.091,0.051l-0.046,0.006v-0.041
		c0.092-0.269,0.137-0.479,0.137-0.627v-0.366l-0.092,0.011v-0.203l-0.045-0.198l-0.046,0.006c0.001,0.44-0.152,0.879-0.456,1.317
		C63.357,43.395,63.113,43.737,62.741,44.068z M63.241,39.774l0.046-0.005c0-0.089,0.015-0.158,0.046-0.209
		c-0.031-0.044-0.047-0.097-0.047-0.158l-0.045,0.006c0,0.054-0.016,0.083-0.046,0.087C63.226,39.599,63.241,39.692,63.241,39.774z
		 M63.189,27.937l0.046-0.005V27.85l-0.046,0.006V27.937z M65.885,27.361l0.045-0.006v-0.772l-0.046,0.005L65.885,27.361z
		 M64.642,7.978l0.046-0.005V7.729L64.596,7.78C64.626,7.824,64.642,7.89,64.642,7.978z"/>
</g>
<g>
	<path fill="#EAD69A" d="M63.555,26.781l-0.969,0.197c-0.025,0-0.744,0.13-0.744,0.105l-0.188,0.038h-0.263l-1.352,0.225h-0.225
		c-0.113,0-0.388-0.112-0.825-0.338c-0.194,0-0.433-0.125-0.714-0.375c-0.775-0.201-1.163-0.413-1.163-0.638
		c0.051-0.163,0.075-0.275,0.075-0.338v-0.075c-0.45-0.093-0.676-0.181-0.676-0.263c0.051-0.062,0.213-0.137,0.488-0.225v-0.038
		c-0.776-0.131-1.164-0.256-1.164-0.375v-0.113c0.126,0,0.188-0.013,0.188-0.037l0.525,0.037c1.194,0,2.183-0.062,2.964-0.187h0.376
		c0.168,0,0.493,0.087,0.976,0.262c0.094,0.025,0.207,0.038,0.338,0.038h0.037c0.275,0,0.788-0.137,1.538-0.413
		c0.157,0,0.319-0.113,0.488-0.338c-0.05-0.082-0.074-0.144-0.074-0.188c0-0.151,0.1-0.225,0.3-0.225h0.187
		c0,0.2,0.102,0.3,0.301,0.3v-0.037c0.095-0.188,0.182-0.301,0.263-0.338h0.037l0.151,0.226c0.024,0,0.062,0.013,0.111,0.037
		c0.151-0.65,0.288-0.976,0.414-0.976c0.05,0.081,0.074,0.144,0.074,0.188c-0.024,0.3-0.037,0.525-0.037,0.675l0.075-0.037h0.037
		c0.037,0,0.075,0.037,0.113,0.113v0.187h0.149c0.412-0.825,0.7-1.488,0.863-1.989l0.075-0.037c0.05,0.007,0.074,0.031,0.074,0.075
		v0.037c-0.274,1-0.412,1.689-0.412,2.064h1.275c0.476,0,0.764,0.075,0.863,0.226c0.101,0.05,0.238,0.074,0.414,0.074h0.074
		c0.65,0,1.075-0.113,1.275-0.338l0.226-0.037h0.112c0.188,0,0.501,0.037,0.938,0.112c0.012,0,0.175-0.013,0.488-0.037l0.75,0.337
		c0.15,0,0.225,0.013,0.225,0.039l0.188-0.039h0.226c0.325,0.02,0.487,0.07,0.487,0.151v0.038c0,0.05-0.112,0.1-0.338,0.15
		l-0.037,0.075v0.037c1.764,0.2,2.714,0.338,2.852,0.413v0.113c-0.206,0.051-0.344,0.075-0.413,0.075
		c-0.331,0-0.832-0.024-1.501-0.075c-0.631,0.075-1.132,0.113-1.501,0.113H72.5c-0.157,0.201-0.495,0.301-1.014,0.301h-0.562
		c-0.194,0-0.307,0.05-0.339,0.15c0.038,0,0.076,0.037,0.113,0.112v0.038l-0.375,0.037h-0.3c-0.275,0-0.451,0.013-0.526,0.038
		c-0.237-0.025-0.463-0.038-0.675-0.038h-1.651c-0.088,0-0.251,0.1-0.488,0.301c-0.144,0-0.231,0.013-0.263,0.037
		c-0.138-0.024-0.25-0.037-0.338-0.037h-0.038l-0.263,0.037l-0.192,0.043L63.555,26.781z M60.341,24.569v0.038h0.074v-0.038H60.341z
		"/>
</g>
</svg>
