<?xml version="1.0" encoding="UTF-8" standalone="yes"?>
<svg xmlns="http://www.w3.org/2000/svg" xmlns:xlink="http://www.w3.org/1999/xlink" width="50px" height="50px" viewBox="0 0 50 50" version="1.1" fill="#000000">
  <g id="surface338099">
    <path style=" stroke:none;fill-rule:nonzero;fill:#000000;fill-opacity:1;" d="M 39.582031 6.25 L 10.417969 6.25 C 8.113281 6.25 6.25 8.113281 6.25 10.417969 L 6.25 39.582031 C 6.25 41.886719 8.113281 43.75 10.417969 43.75 L 39.582031 43.75 C 41.886719 43.75 43.75 41.886719 43.75 39.582031 L 43.75 10.417969 C 43.75 8.113281 41.886719 6.25 39.582031 6.25 Z M 35.519531 19.820312 C 35.519531 20 35.519531 20.175781 35.519531 20.535156 C 35.519531 27.320312 30.339844 35.179688 20.878906 35.179688 C 18.019531 35.179688 15.339844 34.285156 13.019531 32.859375 C 13.378906 32.859375 13.914062 32.859375 14.269531 32.859375 C 16.589844 32.859375 18.914062 31.964844 20.699219 30.714844 C 18.378906 30.714844 16.59375 29.109375 15.878906 27.144531 C 16.234375 27.144531 16.59375 27.324219 16.773438 27.324219 C 17.308594 27.324219 17.667969 27.324219 18.203125 27.144531 C 15.882812 26.609375 14.097656 24.644531 14.097656 22.144531 C 14.808594 22.5 15.523438 22.679688 16.417969 22.859375 C 14.988281 21.609375 14.097656 20.179688 14.097656 18.394531 C 14.097656 17.5 14.273438 16.609375 14.808594 15.894531 C 17.308594 18.929688 21.058594 21.074219 25.347656 21.25 C 25.347656 20.894531 25.167969 20.535156 25.167969 20 C 25.167969 17.144531 27.488281 14.820312 30.347656 14.820312 C 31.773438 14.820312 33.203125 15.355469 34.097656 16.425781 C 35.347656 16.246094 36.417969 15.710938 37.308594 15.175781 C 36.953125 16.425781 36.058594 17.320312 34.988281 18.035156 C 36.058594 17.855469 36.953125 17.675781 38.023438 17.140625 C 37.304688 18.214844 36.414062 19.105469 35.519531 19.820312 Z M 35.519531 19.820312 "/>
  </g>
</svg>