<?xml version="1.0" encoding="UTF-8" standalone="yes"?>
<svg xmlns="http://www.w3.org/2000/svg" xmlns:xlink="http://www.w3.org/1999/xlink" width="50px" height="50px" viewBox="0 0 50 50" version="1.1" fill="#000000">
  <g id="surface28519">
    <path style=" stroke:none;fill-rule:nonzero;fill:#000000;fill-opacity:1;" d="M 3 34.699219 C 3.601562 35.097656 4.300781 35.5 5 35.699219 L 5 22.300781 C 4.300781 22.5 3.601562 22.800781 3 23.300781 Z M 14 16.5 C 13.300781 16.800781 12.601562 17.101562 12 17.5 L 12 36 L 14 36 Z M 8 36 L 8 22.101562 C 7.699219 22 7.300781 22 7 22 C 6.699219 22 6.300781 22 6 22.101562 L 6 35.898438 C 6.300781 36 6.699219 36 7 36 Z M 2 24.101562 C 0.800781 25.398438 0 27.101562 0 29 C 0 30.898438 0.800781 32.601562 2 33.898438 Z M 20 16.5 C 19.398438 16.300781 18.699219 16.101562 18 16 L 18 36 L 20 36 Z M 9 20.898438 L 9 36 L 11 36 L 11 18.300781 C 10.199219 19 9.5 19.898438 9 20.898438 Z M 17 16 C 16.300781 16 15.601562 16.101562 15 16.199219 L 15 36 L 17 36 Z M 17 16 "/>
    <path style=" stroke:none;fill-rule:nonzero;fill:#000000;fill-opacity:1;" d="M 42.5 21 C 42 21 41.5 21.101562 41 21.199219 C 40.5 15.5 35.800781 11 30 11 C 26.398438 11 23 12.800781 21 15.699219 L 21 36 L 42.5 36 C 46.601562 36 50 32.601562 50 28.5 C 50 24.398438 46.601562 21 42.5 21 Z M 42.5 21 "/>
  </g>
</svg>