<?xml version="1.0" encoding="UTF-8" standalone="yes"?>
<svg xmlns="http://www.w3.org/2000/svg" xmlns:xlink="http://www.w3.org/1999/xlink" width="50px" height="50px" viewBox="0 0 50 50" version="1.1" fill="#000000">
  <g id="surface8951">
    <path style=" stroke:none;fill-rule:nonzero;fill:#000000;fill-opacity:1;" d="M 27 17 L 29.503906 17 L 29.503906 22.800781 L 29.550781 22.800781 C 30.230469 21.703125 31.660156 21.023438 32.933594 21.023438 C 36.515625 21.023438 38.253906 23.746094 38.253906 27.066406 C 38.253906 30.121094 36.714844 33 33.351562 33 C 31.8125 33 30.164062 32.628906 29.414062 31.132812 L 29.371094 31.132812 L 29.371094 32.691406 L 27 32.691406 Z M 32.605469 23 C 30.496094 23 29.417969 24.605469 29.417969 27.023438 C 29.417969 29.308594 30.582031 31.023438 32.605469 31.023438 C 34.890625 31.023438 35.746094 29 35.746094 27.023438 C 35.746094 24.957031 34.667969 23 32.605469 23 M 47.496094 25.132812 C 47.296875 23.746094 46.285156 23 44.902344 23 C 43.605469 23 41.78125 23.683594 41.78125 27.132812 C 41.78125 29.023438 42.613281 31.023438 44.789062 31.023438 C 46.242188 31.023438 47.253906 30.054688 47.496094 28.429688 L 50 28.429688 C 49.539062 31.371094 47.714844 33 44.789062 33 C 41.230469 33 39.273438 30.472656 39.273438 27.132812 C 39.273438 23.703125 41.140625 21.023438 44.878906 21.023438 C 47.515625 21.023438 49.757812 22.339844 50 25.132812 Z M 27 17 L 8.59375 17 L 0 33 L 18.40625 33 Z M 27 17 "/>
  </g>
</svg>