<?xml version="1.0" encoding="UTF-8" standalone="yes"?>
<svg xmlns="http://www.w3.org/2000/svg" xmlns:xlink="http://www.w3.org/1999/xlink" width="50px" height="50px" viewBox="0 0 50 50" version="1.1" fill="#000000">
  <g id="surface26955">
    <path style=" stroke:none;fill-rule:nonzero;fill:#000000;fill-opacity:1;" d="M 21.507812 20.285156 C 20.964844 19.917969 20.578125 19.347656 20.351562 18.574219 C 20.121094 17.800781 20.007812 16.773438 20.007812 15.492188 L 20.007812 13.746094 C 20.007812 12.449219 20.136719 11.410156 20.398438 10.625 C 20.660156 9.839844 21.070312 9.265625 21.625 8.910156 C 22.179688 8.546875 22.910156 8.367188 23.816406 8.367188 C 24.703125 8.367188 25.417969 8.550781 25.953125 8.917969 C 26.492188 9.285156 26.882812 9.859375 27.132812 10.636719 C 27.378906 11.414062 27.503906 12.453125 27.503906 13.746094 L 27.503906 15.492188 C 27.503906 16.777344 27.382812 17.804688 27.140625 18.585938 C 26.898438 19.363281 26.507812 19.933594 25.964844 20.292969 C 25.421875 20.652344 24.683594 20.832031 23.757812 20.832031 C 22.800781 20.832031 22.050781 20.648438 21.507812 20.285156 Z M 24.550781 18.398438 C 24.703125 18.007812 24.777344 17.367188 24.777344 16.476562 L 24.777344 12.726562 C 24.777344 11.863281 24.703125 11.230469 24.550781 10.832031 C 24.402344 10.433594 24.136719 10.234375 23.757812 10.234375 C 23.390625 10.234375 23.132812 10.433594 22.980469 10.832031 C 22.832031 11.234375 22.757812 11.863281 22.757812 12.726562 L 22.757812 16.476562 C 22.757812 17.367188 22.828125 18.007812 22.972656 18.398438 C 23.117188 18.792969 23.378906 18.988281 23.757812 18.988281 C 24.136719 18.988281 24.402344 18.792969 24.550781 18.398438 Z M 14.914062 15.296875 L 11.832031 4.167969 L 14.519531 4.167969 L 15.601562 9.210938 C 15.875 10.453125 16.078125 11.515625 16.207031 12.390625 L 16.289062 12.390625 C 16.378906 11.765625 16.582031 10.710938 16.894531 9.230469 L 18.015625 4.167969 L 20.703125 4.167969 L 17.582031 15.296875 L 17.582031 20.636719 L 14.914062 20.636719 Z M 36.253906 8.605469 L 36.253906 20.636719 L 34.132812 20.636719 L 33.894531 19.164062 L 33.835938 19.164062 C 33.261719 20.277344 32.398438 20.832031 31.246094 20.832031 C 30.449219 20.832031 29.859375 20.570312 29.480469 20.046875 C 29.101562 19.523438 28.914062 18.707031 28.914062 17.59375 L 28.914062 8.605469 L 31.621094 8.605469 L 31.621094 17.4375 C 31.621094 17.976562 31.679688 18.355469 31.796875 18.585938 C 31.917969 18.816406 32.113281 18.929688 32.386719 18.929688 C 32.621094 18.929688 32.847656 18.859375 33.066406 18.710938 C 33.28125 18.570312 33.441406 18.386719 33.546875 18.164062 L 33.546875 8.605469 Z M 36.253906 8.605469 "/>
    <path style=" stroke:none;fill-rule:nonzero;fill:#000000;fill-opacity:1;" d="M 36.109375 32.898438 C 35.992188 32.761719 35.816406 32.695312 35.570312 32.695312 C 35.328125 32.695312 35.148438 32.765625 35.03125 32.910156 C 34.914062 33.050781 34.835938 33.289062 34.800781 33.613281 C 34.761719 33.9375 34.742188 34.433594 34.742188 35.097656 L 34.742188 35.824219 L 36.414062 35.824219 L 36.414062 35.097656 C 36.414062 34.445312 36.390625 33.949219 36.347656 33.613281 C 36.304688 33.273438 36.226562 33.039062 36.109375 32.898438 Z M 28.855469 33.042969 C 28.730469 32.859375 28.550781 32.769531 28.316406 32.769531 C 28.097656 32.769531 27.890625 32.855469 27.703125 33.035156 C 27.515625 33.210938 27.382812 33.4375 27.304688 33.710938 L 27.304688 39.480469 C 27.40625 39.65625 27.535156 39.789062 27.695312 39.878906 C 27.855469 39.964844 28.027344 40.011719 28.21875 40.011719 C 28.460938 40.011719 28.652344 39.921875 28.796875 39.746094 C 28.941406 39.570312 29.042969 39.269531 29.105469 38.851562 C 29.164062 38.429688 29.195312 37.851562 29.195312 37.109375 L 29.195312 35.800781 C 29.195312 35.007812 29.171875 34.394531 29.121094 33.960938 C 29.070312 33.53125 28.980469 33.222656 28.855469 33.042969 Z M 28.855469 33.042969 "/>
    <path style=" stroke:none;fill-rule:nonzero;fill:#000000;fill-opacity:1;" d="M 39.582031 22.917969 L 10.417969 22.917969 C 8.125 22.917969 6.25 24.792969 6.25 27.082031 L 6.25 41.667969 C 6.25 43.957031 8.125 45.832031 10.417969 45.832031 L 39.582031 45.832031 C 41.875 45.832031 43.75 43.957031 43.75 41.667969 L 43.75 27.082031 C 43.75 24.792969 41.875 22.917969 39.582031 22.917969 Z M 15.933594 41.5 L 13.699219 41.5 L 13.699219 29.4375 L 11.429688 29.4375 L 11.429688 27.597656 L 18.207031 27.597656 L 18.207031 29.4375 L 15.933594 29.4375 Z M 23.722656 41.5 L 21.933594 41.5 L 21.734375 40.257812 L 21.683594 40.257812 C 21.199219 41.199219 20.46875 41.667969 19.496094 41.667969 C 18.820312 41.667969 18.324219 41.445312 18.003906 41.003906 C 17.683594 40.5625 17.523438 39.871094 17.523438 38.933594 L 17.523438 31.34375 L 19.8125 31.34375 L 19.8125 38.800781 C 19.8125 39.253906 19.863281 39.578125 19.960938 39.769531 C 20.0625 39.964844 20.226562 40.058594 20.460938 40.058594 C 20.660156 40.058594 20.851562 40 21.03125 39.878906 C 21.214844 39.757812 21.347656 39.601562 21.4375 39.414062 L 21.4375 31.339844 L 23.726562 31.339844 L 23.726562 41.5 Z M 31.496094 37.242188 C 31.496094 38.757812 31.316406 39.867188 30.949219 40.582031 C 30.585938 41.292969 30.015625 41.648438 29.242188 41.648438 C 28.8125 41.648438 28.421875 41.550781 28.066406 41.351562 C 27.710938 41.152344 27.449219 40.882812 27.269531 40.539062 L 27.222656 40.539062 L 26.988281 41.5 L 25.101562 41.5 L 25.101562 27.082031 L 27.304688 27.082031 L 27.304688 32.433594 L 27.320312 32.433594 C 27.519531 32.046875 27.800781 31.738281 28.167969 31.5 C 28.53125 31.261719 28.921875 31.144531 29.34375 31.144531 C 29.886719 31.144531 30.308594 31.289062 30.617188 31.574219 C 30.925781 31.863281 31.152344 32.328125 31.289062 32.964844 C 31.425781 33.609375 31.496094 34.496094 31.496094 35.636719 Z M 38.570312 37.183594 L 34.742188 37.183594 L 34.742188 37.699219 C 34.742188 38.351562 34.761719 38.839844 34.800781 39.164062 C 34.839844 39.488281 34.921875 39.730469 35.042969 39.878906 C 35.164062 40.027344 35.351562 40.101562 35.605469 40.101562 C 35.945312 40.101562 36.179688 39.964844 36.308594 39.703125 C 36.433594 39.4375 36.503906 38.996094 36.515625 38.378906 L 38.488281 38.492188 C 38.496094 38.582031 38.503906 38.703125 38.503906 38.859375 C 38.503906 39.796875 38.246094 40.5 37.734375 40.960938 C 37.21875 41.425781 36.492188 41.660156 35.554688 41.660156 C 34.425781 41.660156 33.636719 41.304688 33.183594 40.597656 C 32.730469 39.890625 32.503906 38.796875 32.503906 37.316406 L 32.503906 35.542969 C 32.503906 34.015625 32.738281 32.902344 33.207031 32.203125 C 33.675781 31.5 34.480469 31.148438 35.617188 31.148438 C 36.402344 31.148438 37.003906 31.292969 37.425781 31.582031 C 37.84375 31.867188 38.140625 32.316406 38.3125 32.921875 C 38.484375 33.53125 38.570312 34.371094 38.570312 35.441406 Z M 38.570312 37.183594 "/>
  </g>
</svg>