<?xml version="1.0" encoding="UTF-8" standalone="yes"?>
<svg xmlns="http://www.w3.org/2000/svg" xmlns:xlink="http://www.w3.org/1999/xlink" width="50px" height="50px" viewBox="0 0 50 50" version="1.1" fill="#000000">
  <g id="surface28080">
    <path style=" stroke:none;fill-rule:nonzero;" d="M 33.59375 2.082031 C 31.191406 2.222656 28.433594 3.5625 26.792969 5.265625 C 25.3125 6.816406 24.144531 9.117188 24.621094 11.34375 C 27.234375 11.414062 29.855469 10.042969 31.421875 8.304688 C 32.886719 6.683594 33.996094 4.417969 33.59375 2.082031 Z M 33.738281 11.339844 C 29.96875 11.339844 28.390625 13.65625 25.78125 13.65625 C 23.097656 13.65625 20.640625 11.484375 17.390625 11.484375 C 12.96875 11.488281 6.25 15.582031 6.25 25.230469 C 6.25 34.007812 14.203125 43.75 18.691406 43.75 C 21.417969 43.777344 22.082031 42.035156 25.78125 42.015625 C 29.484375 41.988281 30.285156 43.773438 33.015625 43.75 C 36.089844 43.726562 38.492188 40.351562 40.246094 37.671875 C 41.507812 35.757812 42.019531 34.773438 42.996094 32.609375 C 35.761719 30.773438 34.320312 19.105469 42.996094 16.695312 C 41.359375 13.898438 36.582031 11.339844 33.738281 11.339844 Z M 33.738281 11.339844 "/>
  </g>
</svg>