<?xml version="1.0" encoding="UTF-8" standalone="yes"?>
<svg xmlns="http://www.w3.org/2000/svg" xmlns:xlink="http://www.w3.org/1999/xlink" width="50px" height="50px" viewBox="0 0 50 50" version="1.1" fill="#000000">
  <g id="surface8955">
    <path style=" stroke:none;fill-rule:nonzero;fill:#000000;fill-opacity:1;" d="M 25 4.167969 C 13.542969 4.167969 4.167969 13.542969 4.167969 25 C 4.167969 36.457031 13.542969 45.832031 25 45.832031 C 36.457031 45.832031 45.832031 36.457031 45.832031 25 C 45.832031 13.542969 36.457031 4.167969 25 4.167969 Z M 33.453125 34.179688 C 33.058594 34.179688 32.863281 33.984375 32.472656 33.789062 C 29.535156 32.023438 25.808594 31.042969 21.890625 31.042969 C 19.734375 31.042969 17.386719 31.433594 15.425781 31.828125 C 15.035156 31.828125 14.640625 32.023438 14.445312 32.023438 C 13.664062 32.023438 13.074219 31.433594 13.074219 30.652344 C 13.074219 29.867188 13.464844 29.28125 14.25 29.28125 C 16.796875 28.695312 19.347656 28.300781 22.089844 28.300781 C 26.597656 28.300781 30.710938 29.476562 34.238281 31.4375 C 34.632812 31.828125 35.023438 32.023438 35.023438 32.808594 C 34.628906 33.789062 34.039062 34.179688 33.453125 34.179688 Z M 35.605469 28.695312 C 35.214844 28.695312 34.824219 28.496094 34.429688 28.300781 C 31.101562 26.144531 26.394531 24.972656 21.300781 24.972656 C 18.753906 24.972656 16.402344 25.363281 14.640625 25.753906 C 14.246094 25.949219 14.050781 25.949219 13.660156 25.949219 C 12.679688 25.949219 12.089844 25.167969 12.089844 24.382812 C 12.089844 23.402344 12.484375 23.011719 13.460938 22.617188 C 15.816406 22.027344 18.167969 21.441406 21.496094 21.441406 C 26.984375 21.441406 32.078125 22.8125 36.390625 25.359375 C 36.980469 25.753906 37.371094 26.339844 37.371094 26.929688 C 37.175781 27.910156 36.585938 28.695312 35.605469 28.695312 Z M 38.152344 22.421875 C 37.761719 22.421875 37.566406 22.226562 36.980469 22.027344 C 33.058594 19.871094 27.378906 18.503906 21.890625 18.503906 C 19.144531 18.503906 16.207031 18.894531 13.660156 19.480469 C 13.265625 19.480469 13.070312 19.675781 12.484375 19.675781 C 11.308594 19.875 10.523438 18.894531 10.523438 17.71875 C 10.523438 16.542969 11.109375 15.953125 11.894531 15.757812 C 15.03125 14.976562 18.363281 14.582031 21.890625 14.582031 C 27.964844 14.582031 34.234375 15.953125 39.136719 18.503906 C 39.722656 18.894531 40.308594 19.480469 40.308594 20.460938 C 40.113281 21.636719 39.328125 22.421875 38.152344 22.421875 Z M 38.152344 22.421875 "/>
  </g>
</svg>